<svg width="16" height="17" viewBox="0 0 16 17" fill="none" xmlns="http://www.w3.org/2000/svg">
<g id="Icons / Phone">
<path id="Vector" d="M14.6666 11.78V13.78C14.6674 13.9657 14.6294 14.1494 14.555 14.3195C14.4806 14.4897 14.3715 14.6424 14.2347 14.7679C14.0979 14.8934 13.9364 14.989 13.7605 15.0485C13.5846 15.1079 13.3982 15.13 13.2133 15.1133C11.1619 14.8904 9.19131 14.1894 7.45998 13.0667C5.84919 12.0431 4.48353 10.6774 3.45998 9.06665C2.33329 7.32745 1.63214 5.34731 1.41331 3.28665C1.39665 3.10229 1.41856 2.91649 1.47764 2.74107C1.53673 2.56564 1.63169 2.40444 1.75649 2.26773C1.88128 2.13102 2.03318 2.02179 2.2025 1.947C2.37183 1.87221 2.55487 1.83349 2.73998 1.83332H4.73998C5.06351 1.83013 5.37717 1.9447 5.62248 2.15567C5.8678 2.36664 6.02803 2.65961 6.07331 2.97998C6.15772 3.62003 6.31428 4.24847 6.53998 4.85332C6.62967 5.09193 6.64908 5.35126 6.59591 5.60057C6.54274 5.84988 6.41922 6.07872 6.23998 6.25998L5.39331 7.10665C6.34235 8.77568 7.72428 10.1576 9.39331 11.1067L10.24 10.26C10.4212 10.0807 10.6501 9.95722 10.8994 9.90405C11.1487 9.85088 11.408 9.87029 11.6466 9.95998C12.2515 10.1857 12.8799 10.3422 13.52 10.4267C13.8438 10.4723 14.1396 10.6355 14.351 10.885C14.5624 11.1345 14.6748 11.453 14.6666 11.78Z" stroke="#2563EB" stroke-width="1.5" stroke-linecap="round" stroke-linejoin="round"/>
</g>
</svg>
