<svg width="550" height="611" viewBox="0 0 550 611" fill="none" xmlns="http://www.w3.org/2000/svg">
<path d="M-52.9723 48.5839C-53.0165 48.3846 -52.8616 48.2518 -52.7731 48.1633L286.699 0.0554199L382.334 29.9395L549.69 82.3031C550.426 82.5355 550.249 82.3971 493.541 450.503C493.447 450.547 212.194 586.182 212.094 586.232C157.019 612.912 162.088 610.045 162.121 610.067C160.738 609.281 89.3313 508.589 51.0244 455.046C50.9801 455.007 50.9469 454.958 50.9192 454.897L2.94971 387.851C-6.96185 327.607 -49.3641 72.4579 -52.9723 48.5894V48.5839ZM0.957458 370.557L7.08368 378.93L4.3941 362.145L-1.57721 354.182L0.957458 370.557ZM10.8911 397.337L17.3549 406.39L14.9697 391.133L8.46716 382.251L10.8911 397.337ZM478.832 440.11L462.495 447.785L460.182 465.511L476.314 457.979L478.832 440.11ZM495.622 431.288L498.494 413.164L482.445 420.491L479.883 438.687L495.622 431.288ZM527.559 76.2598L508.821 80.4325L528.954 87.0015L547.958 82.6462L527.559 76.2598ZM506.048 69.5304L487.564 73.4983L507.249 79.9234L525.949 75.7562L506.048 69.5304ZM485.993 63.2547L467.763 67.0345L485.971 72.9781L504.416 69.0212L485.993 63.2547ZM466.983 57.3056L448.942 60.8972L466.153 66.5143L484.344 62.7401L466.983 57.3056ZM448.256 51.4505L430.569 54.9038L447.309 60.3604L465.306 56.7854L448.256 51.4505ZM430.679 45.9496L413.197 49.2313L428.925 54.367L446.568 50.9192L430.679 45.9496ZM414.232 40.8029L396.977 43.9408L411.532 48.689L428.969 45.4128L414.232 40.8029ZM397.392 35.5345L380.391 38.5284L395.289 43.3929L412.506 40.2606L397.392 35.5345ZM382.206 30.7807L365.427 33.6473L378.692 37.975L395.649 34.9866L382.206 30.7807ZM366.761 25.9494L350.23 28.6888L363.711 33.0884L380.441 30.2273L366.761 25.9494ZM352.333 21.4336L336.052 24.0623L348.498 28.1243L364.979 25.3905L352.333 21.4336ZM337.906 16.9178L321.896 19.4413L334.303 23.4923L350.54 20.8747L337.906 16.9178ZM324.176 12.6233L308.409 15.0417L320.136 18.8658L336.096 16.3533L324.176 12.6233ZM311.204 8.56685L295.681 10.8912L306.633 14.4662L322.35 12.0533L311.204 8.56685ZM298.758 4.67085L283.462 6.90109L293.893 10.3046L309.367 7.99131L298.758 4.67085ZM253.317 5.63378L263.268 8.99851L279.787 6.59118L269.737 3.30946L253.317 5.63378ZM234.701 8.27354L244.557 11.7324L261.43 9.26968L251.464 5.89942L234.701 8.27354ZM216.012 10.9188L225.747 14.4773L242.764 11.9925L232.891 8.52811L216.012 10.9188ZM196.388 13.697L205.995 17.3605L223.992 14.7318L214.241 11.1679L196.388 13.697ZM176.692 16.4861L186.156 20.2548L204.285 17.6096L194.673 13.9405L176.692 16.4861ZM156.139 19.3971L165.464 23.2765L184.49 20.4983L175.016 16.7241L156.139 19.3971ZM135.347 22.3412L144.495 26.3368L163.842 23.5089L154.506 19.6295L135.347 22.3412ZM114.351 25.313L123.277 29.4304L142.918 26.5637L133.759 22.5626L114.351 25.313ZM92.2921 28.4342L101.03 32.6789L121.756 29.6517L112.818 25.5288L92.2921 28.4342ZM69.9232 31.6053L78.4513 35.9717L99.5472 32.8947L90.7979 28.6501L69.9232 31.6053ZM47.2722 34.815L55.5346 39.3198L77.0124 36.182L68.4733 31.81L47.2722 34.815ZM23.4646 38.1853L31.4946 42.8284L54.1456 39.519L45.8721 35.0087L23.4646 38.1853ZM-0.558899 41.5832L7.15564 46.3813L30.1553 43.0221L22.1198 38.3735L-0.558899 41.5832ZM-25.3018 45.0918L-17.8806 50.0338L5.86615 46.5694L-1.85388 41.7714L-25.3018 45.0918ZM129.481 178.795L162.232 171.109L147.063 160.998L114.362 168.281L129.481 178.795ZM163.355 170.849L194.363 163.732L178.646 153.964L148.203 160.743L163.355 170.849ZM162.885 171.823L129.841 179.576L132.425 213.168L164.789 205.138L162.885 171.823ZM132.492 214.02L135.076 246.666L166.687 238.187L164.838 205.99L132.492 214.02ZM131.639 213.915L116.581 202.293L119.188 233.826L134.196 246.245L131.639 213.915ZM131.556 212.786L128.994 179.476L113.825 168.934L116.487 201.159L131.556 212.786ZM113.427 167.628L146.094 160.35L130.71 150.096L98.695 156.969L113.427 167.628ZM147.234 160.096L177.622 153.328L161.717 143.438L131.855 149.847L147.234 160.096ZM178.795 153.067L208.846 146.377L192.387 136.858L162.901 143.184L178.795 153.067ZM179.819 153.704L195.525 163.466L226.112 156.36L209.925 146.997L179.819 153.704ZM195.049 164.44L163.715 171.629L165.624 204.933L196.333 197.307L195.049 164.44ZM165.669 205.785L167.517 237.966L197.606 229.897L196.366 198.165L165.669 205.785ZM167.561 238.824L169.332 269.665L198.823 261.209L197.639 230.761L167.561 238.824ZM166.731 239.045L135.137 247.518L137.351 278.835L168.502 269.903L166.731 239.045ZM134.29 247.413L119.282 235L121.8 265.476L136.476 278.392L134.29 247.413ZM118.38 234.247L104.141 222.471L106.885 252.355L120.892 264.679L118.38 234.247ZM118.28 233.079L115.679 201.601L101.202 190.423L104.035 221.286L118.28 233.079ZM115.591 200.467L112.934 168.303L98.1859 157.639L101.097 189.277L115.591 200.467ZM97.7763 156.305L129.736 149.443L115.69 140.085L84.0684 146.648L97.7763 156.305ZM130.881 149.199L160.688 142.802L146.15 133.765L116.847 139.847L130.881 149.199ZM161.872 142.547L191.302 136.227L176.244 127.522L147.345 133.516L161.872 142.547ZM192.525 135.967L220.168 130.035L204.723 121.612L177.484 127.262L192.525 135.967ZM193.616 136.592L210.057 146.106L238.165 139.847L221.297 130.649L193.616 136.592ZM211.137 146.731L227.313 156.084L255.974 149.553L239.289 140.461L211.137 146.731ZM226.837 157.058L195.885 164.246L197.163 197.102L227.501 189.57L226.837 157.058ZM197.202 197.96L198.436 229.67L228.154 221.701L227.518 190.434L197.202 197.96ZM198.469 230.534L199.659 260.971L228.785 252.62L228.171 222.57L198.469 230.534ZM199.692 261.834L200.849 291.431L229.399 282.72L228.801 253.489L199.692 261.834ZM198.856 262.078L169.376 270.529L171.097 300.512L200.013 291.685L198.856 262.078ZM168.552 270.767L137.411 279.693L139.802 310.059L170.267 300.761L168.552 270.767ZM136.559 279.588L121.899 266.688L124.323 295.98L138.922 309.572L136.559 279.588ZM120.992 265.885L107.002 253.572L109.641 282.311L123.405 295.128L120.992 265.885ZM106.077 252.764L92.8455 241.12L95.6402 269.283L108.717 281.453L106.077 252.764ZM105.967 251.547L103.227 221.712L89.8239 210.622L92.7237 239.892L105.967 251.547ZM103.122 220.534L100.289 189.72L86.7082 179.238L89.7076 209.432L103.122 220.534ZM100.184 188.574L97.2838 156.986L83.5427 147.301L86.5975 178.087L100.184 188.574ZM83.1331 145.978L114.711 139.431L100.798 130.156L69.7572 136.327L83.1331 145.978ZM115.867 139.188L145.115 133.123L130.754 124.196L101.966 129.924L115.867 139.188ZM146.31 132.874L175.154 126.886L160.323 118.313L131.96 123.953L146.31 132.874ZM176.388 126.631L203.583 120.992L188.419 112.724L161.573 118.064L176.388 126.631ZM204.855 120.726L231.347 115.231L215.813 107.273L189.703 112.469L204.855 120.726ZM205.995 121.346L221.43 129.763L248.414 123.969L232.537 115.84L205.995 121.346ZM222.559 130.378L239.416 139.57L266.909 133.444L249.599 124.578L222.559 130.378ZM240.539 140.179L257.208 149.271L285.083 142.752L268.082 134.047L240.539 140.179ZM256.732 150.245L227.672 156.864L228.337 189.366L256.892 182.276L256.732 150.245ZM228.353 190.229L228.99 221.48L257.053 213.954L256.898 183.145L228.353 190.229ZM229.006 222.343L229.62 252.382L257.208 244.474L257.059 214.822L229.006 222.343ZM229.637 253.251L230.235 282.466L257.357 274.187L257.213 245.348L229.637 253.251ZM230.251 283.34L230.821 311.309L257.501 302.715L257.363 275.066L230.251 283.34ZM229.416 283.595L200.882 292.3L201.983 320.601L229.986 311.58L229.416 283.595ZM200.046 292.554L171.147 301.376L172.785 330.009L201.153 320.867L200.046 292.554ZM170.317 301.63L139.869 310.922L141.889 339.959L171.961 330.275L170.317 301.63ZM139.016 310.811L124.423 297.225L126.758 325.465L141.014 339.45L139.016 310.811ZM123.51 296.373L109.752 283.572L112.298 311.287L125.84 324.563L123.51 296.373ZM108.828 282.709L95.7675 270.551L98.4626 297.712L111.374 310.374L108.828 282.709ZM94.8322 269.682L82.2477 257.966L85.1143 284.624L97.5218 296.793L94.8322 269.682ZM94.7104 268.415L91.9213 240.301L79.1375 229.051L82.1093 256.688L94.7104 268.415ZM91.7995 239.078L88.8997 209.858L75.9167 199.117L79.0047 227.816L91.7995 239.078ZM88.7834 208.668L85.795 178.535L72.6073 168.353L75.7894 197.916L88.7834 208.668ZM85.6788 177.384L82.6351 146.659L69.2315 136.991L72.4855 167.196L85.6788 177.384ZM68.822 135.657L99.8018 129.492L88.1692 121.739L57.7649 127.677L68.822 135.657ZM100.975 129.26L129.708 123.543L117.572 116L89.3424 121.512L100.975 129.26ZM130.914 123.305L159.221 117.671L146.548 110.344L118.784 115.762L130.914 123.305ZM160.472 117.422L187.263 112.093L174.163 104.954L147.805 110.101L160.472 117.422ZM188.552 111.839L214.607 106.659L201.037 99.7078L175.458 104.7L188.552 111.839ZM215.935 106.393L240.794 101.445L226.837 94.6718L202.376 99.4477L215.935 106.393ZM217.141 107.007L232.659 114.96L257.861 109.73L242.05 102.054L217.141 107.007ZM233.854 115.568L249.715 123.693L275.31 118.197L259.101 110.328L233.854 115.568ZM250.899 124.296L268.199 133.161L294.203 127.367L276.538 118.795L250.899 124.296ZM269.372 133.759L286.356 142.459L313.052 136.515L295.421 127.959L269.372 133.759ZM257.573 150.051L257.734 182.066L285.52 175.171L285.869 143.433L257.573 150.051ZM257.739 182.935L257.894 213.727L285.172 206.411L285.509 176.039L257.739 182.935ZM257.9 214.595L258.049 244.231L284.84 236.549L285.161 207.285L257.9 214.595ZM258.049 245.105L258.199 273.932L284.513 265.897L284.829 237.429L258.049 245.105ZM258.199 274.806L258.342 302.444L284.198 294.115L284.502 266.782L258.199 274.806ZM258.342 303.329L258.481 329.954L283.893 321.331L284.187 295L258.342 303.329ZM257.507 303.6L230.838 312.189L231.386 339.14L257.64 330.236L257.507 303.6ZM230.002 312.46L202.022 321.475L203.085 348.742L230.55 339.422L230.002 312.46ZM201.186 321.741L172.835 330.872L174.418 358.46L202.254 349.019L201.186 321.741ZM172.011 331.143L141.955 340.823L144.158 368.725L173.588 358.742L172.011 331.143ZM141.103 340.717L126.863 326.749L129.083 353.606L143.267 368.172L141.103 340.717ZM125.945 325.847L112.42 312.582L114.843 338.991L128.158 352.66L125.945 325.847ZM111.49 311.674L98.5898 299.018L101.163 324.945L113.914 338.033L111.49 311.674ZM97.6546 298.099L85.2582 285.941L87.9976 311.431L100.217 323.977L97.6546 298.099ZM84.3119 285.017L73.537 274.447L76.3262 299.45L87.0457 310.457L84.3119 285.017ZM84.168 283.694L81.3069 257.092L70.4767 247.014L73.3876 273.124L84.168 283.694ZM81.1685 255.813L78.2023 228.231L67.3167 218.652L70.3383 245.73L81.1685 255.813ZM78.0694 226.992L74.9869 198.347L64.0461 189.294L67.1783 217.412L78.0694 226.992ZM74.8597 197.146L71.6831 167.644L60.6869 159.155L63.9132 188.093L74.8597 197.146ZM71.5613 166.482L68.3184 136.327L57.2502 128.347L60.554 157.993L71.5613 166.482ZM56.8296 127.002L87.1786 121.075L74.749 112.79L45.1029 118.358L56.8296 127.002ZM88.3518 120.848L116.52 115.347L103.67 107.361L75.9333 112.569L88.3518 120.848ZM117.732 115.109L145.441 109.702L132.143 102.01L104.893 107.129L117.732 115.109ZM146.698 109.459L173.007 104.323L159.387 96.8965L133.41 101.772L146.698 109.459ZM174.302 104.069L199.825 99.088L185.851 91.9268L160.693 96.653L174.302 104.069ZM201.164 98.8223L225.575 94.0575L211.325 87.1399L187.202 91.6723L201.164 98.8223ZM226.953 93.7918L250.716 89.1487L236.228 82.4636L212.714 86.8798L226.953 93.7918ZM228.209 94.4006L242.166 101.174L266.35 96.3597L252.022 89.752L228.209 94.4006ZM243.417 101.783L259.211 109.448L283.7 104.367L267.651 96.9629L243.417 101.783ZM260.451 110.051L276.649 117.909L301.497 112.575L284.984 104.96L260.451 110.051ZM277.878 118.507L295.526 127.074L320.745 121.457L302.77 113.161L277.878 118.507ZM296.743 127.666L314.375 136.222L340.258 130.461L322.007 122.038L296.743 127.666ZM286.716 143.239L286.362 174.96L313.041 168.342L313.871 137.196L286.716 143.239ZM286.35 175.829L286.018 206.184L312.222 199.155L313.019 169.21L286.35 175.829ZM286.007 207.058L285.681 236.311L311.431 228.929L312.2 200.035L286.007 207.058ZM285.67 237.186L285.354 265.642L310.656 257.916L311.409 229.809L285.67 237.186ZM285.343 266.522L285.044 293.844L309.915 285.83L310.634 258.807L285.343 266.522ZM285.033 294.729L284.74 321.044L309.201 312.748L309.892 286.721L285.033 294.729ZM284.729 321.935L284.447 347.508L308.498 338.952L309.173 313.645L284.729 321.935ZM283.888 322.222L258.481 330.839L258.614 356.694L283.6 347.807L283.888 322.222ZM257.645 331.121L231.408 340.02L231.939 366.185L257.772 356.993L257.645 331.121ZM230.572 340.308L203.118 349.616L204.153 376.069L231.104 366.479L230.572 340.308ZM202.288 349.898L174.468 359.334L175.995 386.08L203.317 376.362L202.288 349.898ZM173.638 359.616L144.218 369.594L146.056 396.733L175.171 386.374L173.638 359.616ZM143.372 369.484L129.188 354.923L131.374 381.365L145.17 396.163L143.372 369.484ZM128.269 353.977L114.965 340.324L117.356 366.335L130.45 380.375L128.269 353.977ZM114.035 339.367L101.296 326.29L103.825 351.83L116.421 365.333L114.035 339.367ZM100.35 325.322L88.1415 312.787L90.8477 337.912L102.879 350.817L100.35 325.322ZM87.1952 311.813L76.4756 300.811L79.2205 325.449L89.8903 336.888L87.1952 311.813ZM75.5182 299.832L64.5939 288.614L67.4495 312.826L78.2631 324.419L75.5182 299.832ZM75.3688 298.47L72.5851 273.517L61.5391 262.681L64.4334 287.241L75.3688 298.47ZM72.4413 272.194L69.5359 246.134L58.3625 235.73L61.3786 261.347L72.4413 272.194ZM69.392 244.85L66.3814 217.827L55.0808 207.883L58.2076 234.441L69.392 244.85ZM66.2431 216.588L63.1108 188.519L51.6829 179.061L54.9314 206.632L66.2431 216.588ZM62.978 187.318L59.7627 158.441L48.202 149.515L51.539 177.855L62.978 187.318ZM59.6299 157.279L56.3315 127.677L44.6048 119.038L48.0636 148.347L59.6299 157.279ZM44.1731 117.677L73.7473 112.126L62.6515 104.727L33.4758 110.034L44.1731 117.677ZM74.9316 111.899L102.613 106.703L91.1133 99.5528L63.8413 104.511L74.9316 111.899ZM103.836 106.47L131.025 101.368L119.094 94.467L92.3419 99.3315L103.836 106.47ZM132.292 101.13L158.22 96.26L145.967 89.5804L120.372 94.2346L132.292 101.13ZM159.526 96.0165L184.628 91.3015L172.016 84.8432L147.284 89.3424L159.526 96.0165ZM185.979 91.0469L210.052 86.5256L197.163 80.2721L173.383 84.5942L185.979 91.0469ZM211.447 86.2655L234.911 81.8603L221.773 75.795L198.569 80.0175L211.447 86.2655ZM236.339 81.5892L259.117 77.3113L245.686 71.4507L223.212 75.5349L236.339 81.5892ZM237.656 82.1979L252.128 88.8776L275.255 84.3617L260.484 77.909L237.656 82.1979ZM253.434 89.4808L267.75 96.083L291.348 91.39L276.61 84.9539L253.434 89.4808ZM269.051 96.6806L285.083 104.08L309.029 99.1101L292.698 91.9767L269.051 96.6806ZM286.373 104.672L302.864 112.281L327.214 107.057L310.363 99.6967L286.373 104.672ZM304.137 112.868L322.095 121.152L346.871 115.64L328.537 107.633L304.137 112.868ZM323.357 121.739L341.608 130.156L366.55 124.235L348.177 116.21L323.357 121.739ZM314.718 137.008L313.894 168.131L339.848 161.684L341.121 131.13L314.718 137.008ZM313.866 169L313.069 198.928L338.587 192.083L339.815 162.564L313.866 169ZM313.047 199.803L312.278 228.685L337.364 221.491L338.548 192.968L313.047 199.803ZM312.256 229.565L311.508 257.662L336.174 250.13L337.325 222.376L312.256 229.565ZM311.481 258.547L310.767 285.559L335.028 277.739L336.135 251.021L311.481 258.547ZM310.739 286.45L310.047 312.46L333.921 304.364L334.99 278.636L310.739 286.45ZM310.025 313.357L309.35 338.648L332.842 330.291L333.883 305.266L310.025 313.357ZM309.328 339.55L308.675 363.911L331.802 355.338L332.804 331.199L309.328 339.55ZM308.476 339.854L284.436 348.404L284.164 372.992L307.828 364.226L308.476 339.854ZM283.594 348.703L258.619 357.585L258.741 382.417L283.318 373.308L283.594 348.703ZM257.778 357.884L231.956 367.071L232.471 392.157L257.905 382.727L257.778 357.884ZM231.12 367.364L204.186 376.949L205.171 402.273L231.635 392.467L231.12 367.364ZM203.356 377.242L176.045 386.955L177.512 412.528L204.341 402.583L203.356 377.242ZM175.22 387.248L146.117 397.602L148.131 423.413L176.687 412.832L175.22 387.248ZM145.264 397.492L131.484 382.716L133.538 407.542L147.24 422.799L145.264 397.492ZM130.56 381.725L117.483 367.702L119.73 392.173L132.608 406.507L130.56 381.725ZM116.542 366.7L103.963 353.208L106.349 377.281L118.789 391.127L116.542 366.7ZM103.017 352.195L90.9971 339.306L93.5483 363.025L105.402 376.219L103.017 352.195ZM90.0397 338.282L79.381 326.849L81.9765 350.142L92.5854 361.957L90.0397 338.282ZM78.4181 325.82L67.6155 314.237L70.3162 337.165L81.008 349.068L78.4181 325.82ZM66.6471 313.196L56.5529 302.377L59.3255 324.929L69.3422 336.08L66.6471 313.196ZM66.481 311.785L63.631 287.623L53.4483 277.175L56.3758 300.955L66.481 311.785ZM63.4705 286.251L60.5817 261.74L50.3105 251.668L53.2767 275.791L63.4705 286.251ZM60.4212 260.407L57.4107 234.845L47.0509 225.204L50.1444 250.324L60.4212 260.407ZM57.2557 233.555L54.1345 207.053L43.6861 197.855L46.8904 223.904L57.2557 233.555ZM53.9851 205.802L50.7421 178.286L40.2052 169.565L43.5312 196.599L53.9851 205.802ZM50.6038 177.074L47.2667 148.801L36.6357 140.594L40.0502 168.347L50.6038 177.074ZM47.1284 147.627L43.6806 118.358L32.9556 110.698L36.4918 139.42L47.1284 147.627ZM32.5239 109.354L61.6443 104.058L50.5374 96.653L21.8265 101.711L32.5239 109.354ZM62.8341 103.842L90.0452 98.8943L78.5122 91.7221L51.7383 96.4427L62.8341 103.842ZM91.2793 98.6674L117.97 93.814L105.983 86.8853L79.7518 91.5063L91.2793 98.6674ZM119.249 93.5815L144.788 88.9384L132.464 82.2145L107.273 86.6584L119.249 93.5815ZM146.111 88.7005L170.788 84.2123L158.076 77.7042L133.792 81.9821L146.111 88.7005ZM172.149 83.9633L195.885 79.6467L182.874 73.3323L159.454 77.4607L172.149 83.9633ZM197.285 79.3921L220.439 75.1807L207.158 69.0545L184.291 73.0833L197.285 79.3921ZM221.884 74.9206L244.302 70.842L230.705 64.9039L208.613 68.7999L221.884 74.9206ZM245.791 70.5763L267.49 66.6305L253.633 60.864L232.205 64.6438L245.791 70.5763ZM247.169 71.1795L260.584 77.0346L282.576 72.9062L268.918 67.2227L247.169 71.1795ZM261.956 77.6323L276.71 84.0795L298.979 79.7297L283.993 73.4983L261.956 77.6323ZM278.066 84.6717L292.792 91.1023L315.471 86.592L300.385 80.3163L278.066 84.6717ZM294.142 91.6889L310.457 98.8168L333.412 94.0519L316.865 87.1675L294.142 91.6889ZM311.785 99.3979L328.625 106.753L351.918 101.755L334.79 94.6275L311.785 99.3979ZM329.948 107.328L348.26 115.331L371.902 110.062L353.285 102.32L329.948 107.328ZM349.566 115.901L367.912 123.908L391.863 118.369L373.252 110.627L349.566 115.901ZM341.968 130.937L340.701 161.474L365.709 155.27L367.419 124.893L341.968 130.937ZM340.662 162.354L339.439 191.856L364.021 185.265L365.659 156.15L340.662 162.354ZM339.4 192.736L338.216 221.247L362.389 214.319L363.972 186.145L339.4 192.736ZM338.177 222.133L337.026 249.87L360.795 242.62L362.339 215.204L338.177 222.133ZM336.987 250.761L335.881 277.468L359.262 269.931L360.745 243.511L336.987 250.761ZM335.842 278.359L334.774 304.076L357.779 296.273L359.207 270.833L335.842 278.359ZM334.735 304.978L333.695 329.987L356.335 321.94L357.729 297.181L334.735 304.978ZM333.661 330.894L332.654 355.023L354.934 346.761L356.285 322.848L333.661 330.894ZM332.621 355.931L331.647 379.296L353.584 370.801L354.885 347.679L332.621 355.931ZM331.763 356.252L308.653 364.813L308.022 388.438L330.789 379.628L331.763 356.252ZM307.801 365.128L284.153 373.894L283.888 397.785L307.175 388.77L307.801 365.128ZM283.307 374.21L258.746 383.313L258.868 407.47L283.047 398.111L283.307 374.21ZM257.905 383.623L232.487 393.048L232.985 417.486L258.027 407.791L257.905 383.623ZM231.651 393.358L205.21 403.159L206.173 427.868L232.15 417.813L231.651 393.358ZM204.379 403.463L177.561 413.402L178.995 438.389L205.342 428.189L204.379 403.463ZM176.737 413.712L148.197 424.288L150.212 449.529L178.17 438.71L176.737 413.712ZM147.345 424.177L133.648 408.931L135.641 433.059L149.315 448.881L147.345 424.177ZM132.719 407.896L119.857 393.573L122.038 417.315L134.711 431.98L132.719 407.896ZM118.917 392.528L106.493 378.692L108.806 402.002L121.091 416.219L118.917 392.528ZM105.541 377.635L93.7032 364.459L96.1659 387.381L107.848 400.895L105.541 377.635ZM92.7403 363.385L82.137 351.581L84.6384 374.038L95.203 386.263L92.7403 363.385ZM81.1685 350.502L70.4877 338.609L73.0887 360.673L83.6644 372.915L81.1685 350.502ZM69.5137 337.524L59.5081 326.39L62.1755 348.045L72.1092 359.539L69.5137 337.524ZM58.5286 325.294L48.855 314.53L51.622 335.836L61.1849 346.899L58.5286 325.294ZM58.3459 323.838L55.5734 301.326L45.778 290.822L48.6668 313.058L58.3459 323.838ZM55.4018 299.909L52.4798 276.179L42.5516 265.985L45.5899 289.389L55.4018 299.909ZM52.3083 274.795L49.3475 250.722L39.2921 240.86L42.3746 264.596L52.3083 274.795ZM49.1815 249.383L46.0935 224.313L35.9108 214.833L39.115 239.51L49.1815 249.383ZM45.933 223.013L42.7343 197.019L32.4188 187.943L35.7392 213.527L45.933 223.013ZM42.5793 195.763L39.2589 168.784L28.8105 160.14L32.2527 186.676L42.5793 195.763ZM39.1094 167.567L35.7004 139.869L25.1193 131.7L28.65 158.911L39.1094 167.567ZM35.5566 138.695L32.0258 110.034L21.3118 102.375L24.9643 130.522L35.5566 138.695ZM20.8691 101.025L49.5246 95.9778L39.5134 89.3037L11.3339 94.1183L20.8691 101.025ZM50.7255 95.7675L77.4441 91.058L67.0566 84.6052L40.7254 89.0989L50.7255 95.7675ZM78.6837 90.8422L104.854 86.2267L94.0685 79.9898L68.3073 84.3894L78.6837 90.8422ZM106.144 85.9998L131.28 81.5726L120.195 75.5293L95.3635 79.7685L106.144 85.9998ZM132.608 81.3401L156.836 77.0678L145.419 71.2183L121.534 75.2969L132.608 81.3401ZM158.209 76.8243L181.585 72.707L169.902 67.04L146.803 70.9859L158.209 76.8243ZM182.996 72.4579L205.818 68.4346L193.903 62.9393L171.33 66.7965L182.996 72.4579ZM207.274 68.1801L229.316 64.2951L217.125 58.9713L195.37 62.6903L207.274 68.1801ZM215.719 58.3626L203.494 53.0222L182.099 56.5695L194.02 62.0649L215.719 58.3626ZM217.23 58.1025L238.331 54.4998L225.857 49.3088L205.016 52.7676L217.23 58.1025ZM218.635 58.7168L230.81 64.035L252.194 60.2663L239.787 55.103L218.635 58.7168ZM253.733 59.9952L274.469 56.3371L261.89 51.3288L241.336 54.8374L253.733 59.9952ZM255.171 60.5928L269.012 66.3538L290.02 62.5298L275.957 56.9293L255.171 60.5928ZM270.445 66.946L284.087 72.6239L305.332 68.6339L291.492 63.1219L270.445 66.946ZM285.504 73.2106L300.473 79.4364L321.94 75.2471L306.793 69.2149L285.504 73.2106ZM301.874 80.023L316.954 86.2931L338.775 81.9544L323.385 75.8226L301.874 80.023ZM318.349 86.8742L334.873 93.7476L356.91 89.1764L340.214 82.5244L318.349 86.8742ZM336.251 94.3231L353.363 101.44L375.676 96.653L358.327 89.7409L336.251 94.3231ZM354.73 102.01L373.324 109.747L395.92 104.716L377.082 97.2119L354.73 102.01ZM374.674 110.306L393.269 118.042L416.429 112.884L397.303 105.27L374.674 110.306ZM368.272 124.689L366.567 155.054L390.662 149.077L392.771 119.022L368.272 124.689ZM366.517 155.934L364.879 185.032L388.582 178.679L390.602 149.957L366.517 155.934ZM364.829 185.918L363.247 214.07L386.562 207.385L388.515 179.565L364.829 185.918ZM363.197 214.961L361.653 242.354L384.597 235.354L386.501 208.281L363.197 214.961ZM361.603 243.251L360.12 269.66L382.699 262.382L384.536 236.256L361.603 243.251ZM360.065 270.556L358.637 295.98L380.867 288.442L382.633 263.284L360.065 270.556ZM358.587 296.887L357.192 321.63L379.08 313.849L380.801 289.35L358.587 296.887ZM357.143 322.543L355.798 346.445L377.353 338.454L379.013 314.763L357.143 322.543ZM378.216 338.133L399.434 330.269L401.376 306.81L379.882 314.453L378.216 338.133ZM378.15 339.057L376.545 361.913L397.486 353.811L399.357 331.193L378.15 339.057ZM377.287 339.378L355.748 347.358L354.447 370.469L375.676 362.251L377.287 339.378ZM354.392 371.393L353.13 393.811L374.049 385.416L375.615 363.18L354.392 371.393ZM353.534 371.725L331.608 380.214L330.667 402.827L352.273 394.16L353.534 371.725ZM330.756 380.541L308 389.351L307.391 412.174L329.815 403.175L330.756 380.541ZM307.148 389.677L283.877 398.687L283.622 421.714L306.539 412.517L307.148 389.677ZM283.036 399.014L258.874 408.366L258.99 431.604L282.775 422.052L283.036 399.014ZM258.033 408.693L233.002 418.383L233.483 441.842L258.149 431.941L258.033 408.693ZM232.166 418.704L206.206 428.754L207.13 452.423L232.648 442.179L232.166 418.704ZM205.376 429.075L179.044 439.268L180.411 463.148L206.3 452.755L205.376 429.075ZM178.22 439.589L150.278 450.403L152.104 474.51L179.587 463.475L178.22 439.589ZM149.426 450.298L135.762 434.482L137.677 457.708L151.208 473.84L149.426 450.298ZM134.827 433.402L122.171 418.754L124.279 441.742L136.742 456.596L134.827 433.402ZM121.224 417.663L108.95 403.457L111.197 426.147L123.333 440.613L121.224 417.663ZM107.992 402.351L96.3264 388.853L98.7393 411.299L110.239 425.002L107.992 402.351ZM95.3579 387.729L84.8044 375.516L87.2671 397.624L97.7708 410.143L95.3579 387.729ZM83.8304 374.392L73.2658 362.162L75.8392 384L86.2931 396.457L83.8304 374.392ZM72.2808 361.028L62.3582 349.544L65.009 371.094L74.8541 382.826L72.2808 361.028ZM61.3731 348.404L51.8213 337.347L54.5883 358.67L64.0184 369.91L61.3731 348.404ZM50.8196 336.196L41.9263 325.903L44.7598 346.954L53.5811 357.475L50.8196 336.196ZM50.6259 334.68L47.8644 313.423L38.9047 303.451L41.7215 324.381L50.6259 334.68ZM37.9085 302.339L29.2145 292.659L32.0646 313.207L40.7143 323.219L37.9085 302.339ZM37.7094 300.861L34.7707 279.018L26.0158 269.632L29.0042 291.171L37.7094 300.861ZM38.7054 301.968L47.6707 311.951L44.793 289.765L35.7614 280.08L38.7054 301.968ZM44.6048 288.332L41.5721 264.983L32.4686 255.636L35.5676 278.642L44.6048 288.332ZM41.395 263.589L38.3181 239.903L29.1426 230.904L32.2804 254.236L41.395 263.589ZM38.141 238.553L34.9478 213.937L25.7003 205.326L28.9599 229.549L38.141 238.553ZM34.7762 212.625L31.4614 187.097L22.1419 178.895L25.5233 204.014L34.7762 212.625ZM31.2953 185.835L27.8586 159.349L18.4673 151.579L21.9704 177.628L31.2953 185.835ZM27.6982 158.126L24.1729 130.975L14.7097 123.67L18.3013 150.35L27.6982 158.126ZM24.018 129.791L20.371 101.706L10.8247 94.788L14.5491 122.486L24.018 129.791ZM10.382 93.4266L38.4951 88.6285L28.5892 82.0208L1.17328 86.5698L10.382 93.4266ZM39.7016 88.4182L65.9774 83.9356L55.6785 77.5327L29.8011 81.8216L39.7016 88.4182ZM67.2281 83.7198L92.9285 79.3313L82.2089 73.1331L56.9348 77.3224L67.2281 83.7198ZM94.2234 79.1099L119 74.8763L107.965 68.8608L83.515 72.9173L94.2234 79.1099ZM120.339 74.6494L144.169 70.5819L132.779 64.7434L109.309 68.6394L120.339 74.6494ZM145.552 70.3439L168.602 66.4092L156.925 60.7423L134.174 64.5165L145.552 70.3439ZM170.029 66.1657L192.553 62.3139L180.622 56.813L158.364 60.5043L170.029 66.1657ZM179.26 56.1877L168.297 51.1295L146.344 54.6714L157.052 59.8679L179.26 56.1877ZM180.738 55.9387L202.077 52.4024L190.838 47.4936L169.786 50.886L180.738 55.9387ZM203.599 52.1478L224.396 48.7001L212.919 43.9297L192.371 47.2446L203.599 52.1478ZM225.962 48.44L246.212 45.0808L234.551 40.4377L214.501 43.6751L225.962 48.44ZM227.423 49.0487L239.881 54.2342L260.39 50.7311L247.723 45.684L227.423 49.0487ZM261.984 50.4599L281.63 47.1063L268.763 42.1975L249.327 45.4184L261.984 50.4599ZM263.484 51.0576L276.046 56.0604L295.93 52.5573L283.179 47.6929L263.484 51.0576ZM277.535 56.6526L291.58 62.2475L311.73 58.584L297.463 53.1439L277.535 56.6526ZM293.052 62.8341L306.876 68.3406L327.275 64.511L313.252 59.165L293.052 62.8341ZM308.337 68.9216L323.468 74.9483L344.093 70.925L328.78 65.0865L308.337 68.9216ZM324.912 75.5238L340.291 81.65L361.276 77.4773L345.576 71.4895L324.912 75.5238ZM341.73 82.2256L358.404 88.8665L379.605 84.4669L362.754 78.0418L341.73 82.2256ZM359.821 89.431L377.154 96.3375L398.632 91.7276L381.066 85.0258L359.821 89.431ZM378.559 96.8965L397.375 104.39L419.135 99.5418L400.076 92.2755L378.559 96.8965ZM398.764 104.943L417.89 112.563L440.226 107.588L420.563 100.09L398.764 104.943ZM393.629 118.828L391.52 148.862L414.929 143.051L417.37 113.537L393.629 118.828ZM391.459 149.747L389.439 178.447L412.511 172.26L414.852 143.936L391.459 149.747ZM389.379 179.332L387.425 207.141L410.165 200.622L412.439 173.151L389.379 179.332ZM387.359 208.032L385.46 235.088L407.879 228.248L410.087 201.513L387.359 208.032ZM385.394 235.99L383.562 262.106L405.665 254.983L407.802 229.15L385.394 235.99ZM383.496 263.008L381.73 288.149L403.535 280.756L405.588 255.891L383.496 263.008ZM381.664 289.057L379.943 313.539L401.454 305.891L403.457 281.669L381.664 289.057ZM402.323 305.581L422.987 298.227L425.289 274.264L404.326 281.375L402.323 305.581ZM402.245 306.5L400.308 329.948L420.674 322.4L422.899 299.151L402.245 306.5ZM400.231 330.872L398.36 353.473L418.438 345.698L420.58 323.329L400.231 330.872ZM398.283 354.403L396.462 376.418L416.252 368.471L418.35 346.633L398.283 354.403ZM397.409 354.741L376.479 362.843L374.918 385.068L395.588 376.766L397.409 354.741ZM374.852 385.997L373.341 407.47L393.751 398.98L395.51 377.707L374.852 385.997ZM373.983 386.346L353.08 394.741L351.863 416.407L372.477 407.829L373.983 386.346ZM352.217 395.084L330.629 403.751L329.721 425.616L351 416.767L352.217 395.084ZM329.776 404.094L307.369 413.087L306.782 435.162L328.863 425.976L329.776 404.094ZM306.517 413.43L283.611 422.622L283.368 444.908L305.93 435.516L306.517 413.43ZM282.77 422.965L258.995 432.506L259.106 454.996L282.521 445.256L282.77 422.965ZM258.154 432.843L233.5 442.744L233.959 465.461L258.27 455.345L258.154 432.843ZM232.664 443.076L207.163 453.314L208.06 476.236L233.129 465.804L232.664 443.076ZM206.333 453.646L180.461 464.034L181.789 487.166L207.23 476.579L206.333 453.646ZM179.637 464.36L152.171 475.389L153.997 498.732L180.965 487.509L179.637 464.36ZM151.319 475.279L137.799 459.164L139.642 481.488L153.095 498.029L151.319 475.279ZM136.864 458.046L124.417 443.209L126.443 465.251L138.701 480.331L136.864 458.046ZM123.466 442.08L111.346 427.63L113.499 449.341L125.486 464.083L123.466 442.08ZM110.383 426.485L98.8997 412.799L101.207 434.227L112.536 448.156L110.383 426.485ZM97.9313 411.642L87.4331 399.13L89.7796 420.176L100.233 433.026L97.9313 411.642ZM86.4591 397.968L76.0163 385.521L78.4624 406.258L88.8 418.969L86.4591 397.968ZM75.0312 384.348L65.2027 372.627L67.7151 393.042L77.4718 405.04L75.0312 384.348ZM64.2065 371.443L54.7875 360.22L57.4052 380.369L66.7135 391.814L64.2065 371.443ZM53.7859 359.019L44.9701 348.515L47.643 368.36L56.3924 379.124L53.7859 359.019ZM43.9573 347.309L35.385 337.087L38.0967 356.628L46.6247 367.115L43.9573 347.309ZM43.7525 345.753L40.9246 324.74L32.2804 314.74L35.1636 335.521L43.7525 345.753ZM31.2676 313.567L23.1713 304.203L26.132 324.752L34.1454 334.309L31.2676 313.567ZM31.0574 312.034L28.2073 291.541L20.0445 282.454L22.9499 302.659L31.0574 312.034ZM28.0025 290.053L25.0141 268.564L16.7739 259.726L19.8287 280.955L28.0025 290.053ZM24.8149 267.114L21.6826 244.563L13.3649 236.023L16.5635 258.271L24.8149 267.114ZM25.811 268.182L34.577 277.579L31.4835 254.624L22.6732 245.581L25.811 268.182ZM31.2953 253.229L28.163 229.947L19.2919 221.247L22.4795 244.175L31.2953 253.229ZM27.9804 228.586L24.7319 204.424L15.7999 196.117L19.1037 219.881L27.9804 228.586ZM24.5548 203.112L21.179 178.054L12.1971 170.146L15.6172 194.795L24.5548 203.112ZM21.0074 176.781L17.5099 150.787L8.46716 143.305L12.0201 168.867L21.0074 176.781ZM17.3439 149.559L13.7633 122.94L4.66528 115.917L8.29565 142.071L17.3439 149.559ZM13.6028 121.756L9.88391 94.1073L0.680725 87.2505L4.49927 114.727L13.6028 121.756ZM0.226929 85.8726L27.5653 81.3401L18.5005 75.2969L-8.51141 79.6578L0.226929 85.8726ZM28.7773 81.1354L54.5938 76.8575L45.1637 70.9969L19.7235 75.1032L28.7773 81.1354ZM55.8556 76.6472L81.0634 72.469L71.2459 66.7855L46.4311 70.7922L55.8556 76.6472ZM82.3694 72.2532L106.764 68.2077L96.6418 62.6903L72.5575 66.5752L82.3694 72.2532ZM108.114 67.9808L131.523 64.1014L121.069 58.75L98.0032 62.4689L108.114 67.9808ZM132.918 63.869L155.619 60.1058L144.899 54.9038L122.475 58.5231L132.918 63.869ZM143.582 54.2674L133.117 49.1871L111.042 52.668L121.208 57.8756L143.582 54.2674ZM145.026 54.0294L166.93 50.4986L156.205 45.5512L134.578 48.9602L145.026 54.0294ZM168.419 50.2551L189.41 46.8683L178.386 42.0536L157.705 45.3132L168.419 50.2551ZM190.948 46.6248L211.447 43.3154L200.168 38.6225L179.93 41.8101L190.948 46.6248ZM213.024 43.0608L233.029 39.8345L221.541 35.2578L201.756 38.3735L213.024 43.0608ZM234.645 39.5688L253.782 36.4863L242.078 32.0203L223.168 34.9977L234.645 39.5688ZM236.167 40.1776L247.817 44.8151L267.208 41.5998L255.354 37.084L236.167 40.1776ZM268.852 41.3287L288.06 38.1466L276.024 33.747L257.009 36.8128L268.852 41.3287ZM270.407 41.9263L283.262 46.824L302.72 43.5036L289.665 38.7332L270.407 41.9263ZM284.806 47.4162L297.546 52.2751L317.231 48.8052L304.314 44.0846L284.806 47.4162ZM299.079 52.8562L313.329 58.2906L333.274 54.6658L318.808 49.3808L299.079 52.8562ZM314.851 58.8717L328.858 64.2177L349.035 60.4268L334.84 55.2358L314.851 58.8717ZM330.363 64.7877L345.654 70.6206L366.041 66.6416L350.579 60.9913L330.363 64.7877ZM347.137 71.1851L362.826 77.1674L383.562 73.0445L367.569 67.2005L347.137 71.1851ZM364.304 77.7319L381.133 84.1515L402.074 79.8072L385.084 73.5979L364.304 77.7319ZM382.594 84.7104L400.142 91.4011L421.343 86.8521L403.574 80.3551L382.594 84.7104ZM401.587 91.9545L420.624 99.2152L442.091 94.4338L422.827 87.3944L401.587 91.9545ZM422.052 99.7576L441.714 107.256L463.131 102.121L443.557 94.9706L422.052 99.7576ZM418.228 113.349L415.787 142.84L438.433 137.218L441.211 108.23L418.228 113.349ZM415.715 143.726L413.374 172.027L435.666 166.05L438.344 138.109L415.715 143.726ZM413.302 172.918L411.028 200.373L432.976 194.081L435.583 166.941L413.302 172.918ZM410.956 201.269L408.742 227.982L430.359 221.386L432.893 194.977L410.956 201.269ZM408.67 228.89L406.534 254.707L427.824 247.844L430.27 222.293L408.67 228.89ZM406.457 255.614L404.404 280.457L425.378 273.345L427.735 248.757L406.457 255.614ZM426.247 273.047L446.59 266.151L449.197 241.845L428.604 248.475L426.247 273.047ZM426.164 273.965L423.861 297.917L443.95 290.772L446.49 267.07L426.164 273.965ZM423.773 298.841L421.548 322.073L441.388 314.718L443.851 291.702L423.773 298.841ZM421.46 323.003L419.312 345.361L438.914 337.773L441.283 315.654L421.46 323.003ZM419.224 346.296L417.132 368.122L436.496 360.347L438.815 338.714L419.224 346.296ZM417.043 369.063L415.024 390.131L434.155 382.168L436.396 361.293L417.043 369.063ZM416.164 369.417L396.385 377.353L394.625 398.615L414.144 390.497L416.164 369.417ZM394.547 399.561L392.826 420.353L412.068 412.091L414.05 391.443L394.547 399.561ZM393.673 399.921L373.28 408.41L371.802 429.385L391.946 420.729L393.673 399.921ZM372.411 408.77L351.808 417.342L350.618 438.483L370.933 429.755L372.411 408.77ZM350.944 417.702L329.682 426.546L328.797 447.852L349.755 438.853L350.944 417.702ZM328.825 426.9L306.755 436.086L306.185 457.564L327.939 448.223L328.825 426.9ZM305.902 436.441L283.357 445.821L283.113 467.476L305.332 457.929L305.902 436.441ZM282.51 446.175L259.112 455.909L259.222 477.736L282.272 467.835L282.51 446.175ZM258.276 456.258L233.981 466.363L234.43 488.384L258.381 478.096L258.276 456.258ZM233.146 466.712L208.093 477.133L208.962 499.324L233.594 488.743L233.146 466.712ZM207.263 477.481L181.839 488.057L183.118 510.42L208.132 499.679L207.263 477.481ZM181.015 488.4L154.064 499.612L155.702 522.197L182.298 510.774L181.015 488.4ZM153.211 499.507L139.763 482.971L141.557 504.698L154.805 521.477L153.211 499.507ZM138.828 481.815L126.576 466.756L128.551 488.217L140.616 503.503L138.828 481.815ZM125.624 465.583L113.648 450.857L115.746 471.997L127.594 487.006L125.624 465.583ZM112.685 449.673L101.373 435.765L103.62 456.634L114.777 470.774L112.685 449.673ZM100.399 434.565L89.9567 421.725L92.2367 442.224L102.641 455.395L100.399 434.565ZM88.9716 420.519L78.645 407.818L81.0246 428.018L91.2516 440.973L88.9716 420.519ZM77.6544 406.601L67.9088 394.614L70.3549 414.503L80.0285 426.756L77.6544 406.601ZM66.9072 393.385L57.6099 381.952L60.1611 401.587L69.3532 413.231L66.9072 393.385ZM56.6027 380.712L47.8533 369.96L50.4599 389.301L59.1429 400.303L56.6027 380.712ZM46.8406 368.709L38.3181 358.238L40.9634 377.276L49.4361 388.006L46.8406 368.709ZM37.2943 356.977L29.3639 347.22L32.0646 365.997L39.934 375.97L37.2943 356.977ZM37.0729 355.372L34.3668 335.875L26.3589 326.329L29.1315 345.598L37.0729 355.372ZM25.3296 325.106L17.4545 315.72L20.2603 334.691L28.0966 344.331L25.3296 325.106ZM25.1027 323.529L22.153 303.025L14.2227 293.844L17.2221 314.132L25.1027 323.529ZM21.9316 301.481L19.0318 281.326L11.0627 272.454L13.9957 292.294L21.9316 301.481ZM18.8159 279.826L15.7722 258.647L7.7533 250.052L10.8413 270.949L18.8159 279.826ZM15.5619 257.191L12.3687 235L4.30554 226.726L7.53748 248.586L15.5619 257.191ZM12.1639 233.588L8.92651 211.081L0.819092 203.129L4.09528 225.304L12.1639 233.588ZM13.1601 234.612L21.4889 243.157L18.3123 220.279L9.91711 212.05L13.1601 234.612ZM18.1187 218.918L14.8259 195.21L6.3587 187.329L9.7179 210.677L18.1187 218.918ZM14.6432 193.887L11.2287 169.293L2.68408 161.773L6.17053 186.001L14.6432 193.887ZM11.0516 168.015L7.50977 142.514L-1.1123 135.381L2.50146 160.494L11.0516 168.015ZM7.33826 141.28L3.71344 115.181L-4.98621 108.468L-1.28943 134.141L7.33826 141.28ZM3.54736 113.991L-0.265625 86.5532L-9.03711 80.3163L-5.15771 107.273L3.54736 113.991ZM-9.48541 78.9605L17.4711 74.6107L8.73285 68.7888L-17.7976 72.9671L-9.48541 78.9605ZM18.6942 74.417L44.0791 70.3218L34.9589 64.6549L9.95587 68.5951L18.6942 74.417ZM45.3408 70.117L70.0948 66.1214L60.5762 60.615L36.2318 64.4556L45.3408 70.117ZM71.4064 65.9111L95.4409 62.0317L85.6069 56.6747L61.8933 60.4102L71.4064 65.9111ZM96.7968 61.8159L119.808 58.1025L109.63 52.8894L86.9738 56.4589L96.7968 61.8159ZM108.358 52.2364L98.6009 47.2391L76.3317 50.6536L85.7618 55.7948L108.358 52.2364ZM109.769 52.015L131.794 48.5451L121.778 43.6807L100.018 47.0232L109.769 52.015ZM133.25 48.3127L154.833 44.9148L144.578 40.1831L123.239 43.4593L133.25 48.3127ZM156.327 44.6768L176.953 41.4283L166.427 36.8294L146.083 39.9507L156.327 44.6768ZM178.497 41.1848L198.679 38.0027L187.927 33.5311L167.982 36.5915L178.497 41.1848ZM200.273 37.7536L220.008 34.6435L209.067 30.2882L189.526 33.2876L200.273 37.7536ZM221.635 34.3889L240.495 31.4171L229.366 27.1725L210.705 30.0336L221.635 34.3889ZM242.166 31.1515L260.866 28.2073L249.554 24.0734L231.048 26.9124L242.166 31.1515ZM243.749 31.7547L255.443 36.2152L274.408 33.1548L262.499 28.7995L243.749 31.7547ZM276.112 32.8836L294.043 29.9893L281.934 25.7391L264.209 28.5338L276.112 32.8836ZM277.728 33.4703L289.748 37.8643L307.911 34.8538L295.709 30.5704L277.728 33.4703ZM291.353 38.4509L304.392 43.2158L322.787 40.0724L309.56 35.4349L291.353 38.4509ZM305.985 43.7969L318.885 48.5119L337.491 45.2357L324.425 40.648L305.985 43.7969ZM320.463 49.0875L334.912 54.367L353.756 50.9414L339.112 45.8057L320.463 49.0875ZM336.478 54.9425L350.657 60.1224L369.716 56.5419L355.366 51.5059L336.478 54.9425ZM352.201 60.6869L367.635 66.3261L386.894 62.5685L371.304 57.1008L352.201 60.6869ZM369.168 66.8851L385.151 72.7291L404.736 68.8331L388.46 63.1219L369.168 66.8851ZM386.672 73.2825L403.634 79.4807L423.402 75.3799L406.296 69.381L386.672 73.2825ZM405.134 80.0286L422.887 86.52L442.899 82.2256L424.941 75.9223L405.134 80.0286ZM424.376 87.0624L443.613 94.0907L463.867 89.5804L444.421 82.7569L424.376 87.0624ZM445.079 94.6275L464.615 101.766L485.035 97.0127L465.373 90.1117L445.079 94.6275ZM442.074 108.031L439.296 137.002L461.012 131.612L464.105 102.752L442.074 108.031ZM439.213 137.893L436.535 165.818L457.963 160.068L460.918 132.503L439.213 137.893ZM436.446 166.709L433.845 193.832L454.991 187.766L457.863 160.965L436.446 166.709ZM433.762 194.728L431.227 221.12L452.102 214.75L454.897 188.668L433.762 194.728ZM431.144 222.028L428.693 247.568L449.296 240.927L452.002 215.664L431.144 222.028ZM450.171 240.644L469.756 234.336L472.739 209.333L452.877 215.398L450.171 240.644ZM450.071 241.563L447.47 265.852L466.778 259.3L469.645 235.254L450.071 241.563ZM447.37 266.776L444.83 290.462L463.873 283.689L466.668 260.23L447.37 266.776ZM444.731 291.387L442.268 314.392L461.039 307.435L463.762 284.618L444.731 291.387ZM442.168 315.327L439.8 337.43L458.317 330.258L460.929 308.376L442.168 315.327ZM439.695 338.371L437.381 359.993L455.649 352.66L458.206 331.204L439.695 338.371ZM437.276 360.939L435.04 381.797L453.07 374.298L455.533 353.612L437.276 360.939ZM434.941 382.754L432.749 403.208L450.53 395.571L452.954 375.256L434.941 382.754ZM434.055 383.12L414.929 391.078L412.948 411.714L431.858 403.59L434.055 383.12ZM412.86 412.666L410.95 432.572L429.645 424.288L431.759 404.548L412.86 412.666ZM411.98 413.042L392.743 421.305L391.083 441.371L410.071 432.96L411.98 413.042ZM391.869 421.681L371.736 430.325L370.314 450.575L390.209 441.759L391.869 421.681ZM370.867 430.702L350.568 439.418L349.417 459.833L369.445 450.962L370.867 430.702ZM349.705 439.789L328.758 448.787L327.906 469.363L348.554 460.215L349.705 439.789ZM327.9 449.152L306.157 458.494L305.604 479.241L327.048 469.745L327.9 449.152ZM305.305 458.859L283.107 468.394L282.875 489.313L304.751 479.623L305.305 458.859ZM282.261 468.754L259.228 478.649L259.333 499.745L282.028 489.69L282.261 468.754ZM258.387 479.009L234.446 489.291L234.883 510.575L258.492 500.116L258.387 479.009ZM233.616 489.651L208.995 500.221L209.831 521.677L234.048 510.946L233.616 489.651ZM208.165 500.575L183.167 511.311L184.407 532.938L209.006 522.042L208.165 500.575ZM182.348 511.665L155.768 523.082L157.401 544.903L183.588 533.304L182.348 511.665ZM154.916 522.972L141.684 506.214L143.41 527.089L156.504 544.156L154.916 522.972ZM140.743 505.019L128.69 489.756L130.582 510.376L142.464 525.855L140.743 505.019ZM127.732 488.544L115.9 473.552L117.915 493.862L129.625 509.125L127.732 488.544ZM114.932 472.324L103.786 458.206L105.945 478.262L116.941 492.595L114.932 472.324ZM102.807 456.966L92.4138 443.801L94.6108 463.491L104.96 476.978L102.807 456.966ZM91.4287 442.556L81.2128 429.611L83.4984 449.014L93.6202 462.202L91.4287 442.556ZM80.2167 428.355L70.5541 416.108L72.9006 435.201L82.5023 447.708L80.2167 428.355ZM69.5469 414.835L60.3714 403.214L62.8175 422.057L71.8934 433.884L69.5469 414.835ZM59.3531 401.924L50.6812 390.934L53.1771 409.495L61.7937 420.729L59.3531 401.924ZM49.6574 389.639L41.1958 378.919L43.7304 397.182L52.1478 408.15L49.6574 389.639ZM40.1609 377.613L32.3025 367.657L34.8925 385.665L42.6955 395.831L40.1609 377.613ZM31.2621 366.34L23.4756 356.478L26.0933 374.199L33.8466 384.298L31.2621 366.34ZM31.0242 364.68L28.329 345.947L20.4983 336.323L23.2321 354.807L31.0242 364.68ZM19.4579 335.045L12.413 326.379L15.2188 344.658L22.1807 353.479L19.4579 335.045ZM19.2199 333.412L16.4197 314.486L9.2807 305.974L12.1639 324.735L19.2199 333.412ZM16.1873 312.898L13.1989 292.659L5.94916 284.275L9.03723 304.375L16.1873 312.898ZM12.9664 291.104L10.0444 271.32L2.70618 263.152L5.71124 282.709L12.9664 291.104ZM9.82306 269.815L6.74054 248.968L-0.691711 240.999L2.47375 261.635L9.82306 269.815ZM6.52472 247.507L3.30389 225.697L-4.22803 217.966L-0.91864 239.521L6.52472 247.507ZM3.09357 224.275L-0.177063 202.149L-7.80304 194.673L-4.4494 216.532L3.09357 224.275ZM-0.381836 200.771L-3.75763 177.91L-11.4777 170.721L-8.01886 193.284L-0.381836 200.771ZM0.614319 201.751L8.72729 209.703L5.37915 186.41L-2.77252 178.829L0.614319 201.751ZM5.18549 185.088L1.71008 160.92L-6.48041 153.709L-2.96625 177.495L5.18549 185.088ZM1.52747 159.636L-2.07526 134.584L-10.3155 127.766L-6.67407 152.42L1.52747 159.636ZM-2.25787 133.344L-5.93805 107.732L-14.217 101.346L-10.4981 126.52L-2.25787 133.344ZM-6.10962 106.537L-9.98346 79.6412L-18.3068 73.6644L-14.3941 100.145L-6.10962 106.537ZM-18.7716 72.2698L7.69794 68.0971L-0.730469 62.48L-26.8569 66.4922L-18.7716 72.2698ZM8.92651 67.9034L33.8687 63.9742L25.0916 58.5175L0.503662 62.2918L8.92651 67.9034ZM35.1415 63.7749L59.4196 59.9453L50.2662 54.6548L26.37 58.3239L35.1415 63.7749ZM60.7367 59.7406L84.3949 56.0106L74.9593 50.8639L51.5944 54.45L60.7367 59.7406ZM73.7418 50.1998L64.9924 45.435L41.965 48.8827L50.4322 53.7804L73.7418 50.1998ZM75.1142 49.9895L97.3225 46.586L88.2688 41.9485L66.3704 45.2247L75.1142 49.9895ZM98.7393 46.3647L120.444 43.0332L111.147 38.5229L89.6966 41.7327L98.7393 46.3647ZM121.91 42.8118L143.189 39.5467L133.665 35.1471L112.619 38.3015L121.91 42.8118ZM144.7 39.3143L164.982 36.1986L155.193 31.9262L135.181 34.9202L144.7 39.3143ZM166.537 35.9606L186.432 32.9113L176.427 28.7441L156.759 31.6938L166.537 35.9606ZM188.032 32.6623L207.523 29.6739L197.34 25.6174L178.037 28.5062L188.032 32.6623ZM209.166 29.4193L227.772 26.5637L217.407 22.6124L198.989 25.3683L209.166 29.4193ZM229.454 26.3091L247.916 23.4757L237.374 19.6184L219.1 22.3578L229.454 26.3091ZM249.643 23.2101L267.097 20.5316L256.389 16.7739L239.111 19.3583L249.643 23.2101ZM251.286 23.8077L262.582 27.9362L280.263 25.1525L268.785 21.1237L251.286 23.8077ZM282.017 24.8758L299.461 22.1254L287.845 18.1962L270.551 20.8525L282.017 24.8758ZM283.689 25.4624L295.786 29.7071L313.451 26.857L301.182 22.7065L283.689 25.4624ZM297.446 30.2882L309.632 34.566L327.496 31.6053L315.155 27.4326L297.446 30.2882ZM311.287 35.1471L324.497 39.7847L342.56 36.6966L329.19 32.1753L311.287 35.1471ZM326.135 40.3602L339.184 44.9369L357.419 41.7216L344.237 37.2666L326.135 40.3602ZM340.806 45.5069L355.432 50.637L373.872 47.2833L359.079 42.2861L340.806 45.5069ZM357.037 51.2015L371.371 56.232L389.987 52.7344L375.516 47.8423L357.037 51.2015ZM372.959 56.7909L388.521 62.2531L407.298 58.584L391.614 53.2823L372.959 56.7909ZM390.092 62.8009L406.357 68.5121L425.428 64.7157L408.903 59.1318L390.092 62.8009ZM407.918 69.0545L425.002 75.0534L444.205 71.0689L427.021 65.2581L407.918 69.0545ZM426.534 75.5902L444.476 81.888L463.884 77.7208L445.776 71.6001L426.534 75.5902ZM445.998 82.4193L465.423 89.2373L485.03 84.8709L465.439 78.2466L445.998 82.4193ZM466.928 89.763L486.568 96.6585L506.917 92.27L486.568 85.3911L466.928 89.763ZM464.974 102.547L461.881 131.396L482.645 126.244L486.054 97.638L464.974 102.547ZM461.787 132.287L458.831 159.836L479.291 154.346L482.534 127.14L461.787 132.287ZM458.737 160.732L455.865 187.517L476.026 181.734L479.186 155.248L458.737 160.732ZM455.771 188.419L452.976 214.485L472.844 208.419L475.921 182.642L455.771 188.419ZM473.724 208.154L493.746 202.044L497.072 176.576L476.795 182.393L473.724 208.154ZM473.613 209.067L470.636 234.053L490.398 227.689L493.624 202.957L473.613 209.067ZM470.525 234.972L467.664 259.001L487.171 252.388L490.276 228.608L470.525 234.972ZM467.553 259.931L464.758 283.373L484.017 276.522L487.05 253.318L467.553 259.931ZM464.648 284.303L461.925 307.109L480.946 300.058L483.895 277.457L464.648 284.303ZM461.814 308.044L459.208 329.915L477.996 322.643L480.818 300.999L461.814 308.044ZM459.097 330.861L456.54 352.3L475.091 344.851L477.869 323.595L459.097 330.861ZM456.424 353.252L453.961 373.927L472.29 366.302L474.969 345.809L456.424 353.252ZM453.845 374.885L451.427 395.189L469.534 387.409L472.163 367.264L453.845 374.885ZM451.311 396.152L448.975 415.721L466.872 407.796L469.407 388.377L451.311 396.152ZM450.42 396.534L432.644 404.166L430.53 423.895L448.084 416.119L450.42 396.534ZM430.425 424.863L428.35 444.255L445.671 436.346L447.968 417.093L430.425 424.863ZM429.539 425.256L410.856 433.53L408.98 453.093L427.459 444.659L429.539 425.256ZM409.976 433.923L391.006 442.329L389.373 462.041L408.1 453.497L409.976 433.923ZM390.131 442.716L370.247 451.526L368.847 471.405L388.499 462.44L390.131 442.716ZM369.378 451.908L349.362 460.774L348.238 480.813L367.978 471.803L369.378 451.908ZM348.498 461.161L327.867 470.304L327.026 490.492L347.375 481.211L348.498 461.161ZM327.009 470.68L305.581 480.176L305.039 500.531L326.168 490.885L327.009 470.68ZM304.729 480.553L282.864 490.237L282.637 510.752L304.187 500.918L304.729 480.553ZM282.017 490.614L259.339 500.664L259.444 521.339L281.79 511.14L282.017 490.614ZM258.497 501.034L234.9 511.488L235.326 532.346L258.603 521.721L258.497 501.034ZM234.064 511.859L209.869 522.579L210.688 543.592L234.49 532.728L234.064 511.859ZM209.039 522.944L184.462 533.835L185.674 555.008L209.858 543.968L209.039 522.944ZM183.638 534.2L157.473 545.794L159.288 567.045L184.85 555.379L183.638 534.2ZM156.62 545.689L143.538 528.638L145.187 548.65L158.375 566.248L156.62 545.689ZM142.591 527.404L130.726 511.948L132.553 531.782L144.241 547.382L142.591 527.404ZM129.769 510.697L118.07 495.451L120.012 515.052L131.59 530.498L129.769 510.697ZM117.101 494.183L106.116 479.872L108.208 499.291L119.038 513.752L117.101 494.183ZM105.131 478.588L94.7879 465.107L96.9241 484.233L107.217 497.974L105.131 478.588ZM93.7973 463.818L83.6921 450.647L85.9223 469.551L95.9279 482.905L93.7973 463.818ZM82.6904 449.341L73.1053 436.85L75.402 455.517L84.9151 468.212L82.6904 449.341ZM72.0981 435.533L63.0333 423.723L65.4351 442.213L74.3893 454.161L72.0981 435.533ZM62.015 422.389L53.404 411.166L55.8611 429.434L64.4058 440.84L62.015 422.389ZM52.3747 409.827L43.9628 398.87L46.4698 416.9L54.8263 428.051L52.3747 409.827ZM42.928 397.519L35.136 387.364L37.7038 405.201L45.4294 415.511L42.928 397.519ZM34.09 386.003L26.3478 375.909L28.9489 393.518L36.6523 403.795L34.09 386.003ZM25.2964 374.536L18.4341 365.593L21.1126 383.059L27.8918 392.101L25.2964 374.536ZM25.0418 372.826L22.4297 355.15L15.4789 346.346L18.1685 363.867L25.0418 372.826ZM14.4219 345.006L7.17224 335.825L9.86731 353.047L17.1059 362.477L14.4219 345.006ZM14.1617 343.324L11.3671 325.089L4.09528 316.152L6.90656 334.132L14.1617 343.324ZM11.1125 323.445L8.2403 304.735L0.951904 296.046L3.83514 314.502L11.1125 323.445ZM7.99677 303.135L4.91431 283.074L-2.40173 274.607L0.697327 294.436L7.99677 303.135ZM4.67633 281.514L1.68237 262.012L-5.65027 253.849L-2.64526 273.035L4.67633 281.514ZM1.44995 260.49L-1.71002 239.908L-9.06482 232.022L-5.88824 252.327L1.44995 260.49ZM-1.93689 238.431L-5.23523 216.925L-12.6066 209.366L-9.29169 230.545L-1.93689 238.431ZM-5.4566 215.498L-8.80469 193.688L-16.1927 186.444L-12.8335 207.927L-5.4566 215.498ZM-9.02051 192.299L-12.4738 169.797L-19.8729 162.907L-16.4086 185.049L-9.02051 192.299ZM-12.6786 168.452L-16.2646 145.104L-23.6748 138.579L-20.0832 161.562L-12.6786 168.452ZM-11.6824 169.376L-3.95685 176.576L-7.4599 152.846L-15.2796 145.967L-11.6824 169.376ZM-7.64807 151.562L-11.284 126.963L-19.2032 120.411L-15.4788 144.672L-7.64807 151.562ZM-11.4666 125.718L-15.18 100.604L-23.1934 94.4172L-19.3914 119.16L-11.4666 125.718ZM-15.3571 99.4034L-19.2586 72.9781L-27.3771 67.1563L-23.376 93.2108L-15.3571 99.4034ZM-27.8364 65.7893L-1.76532 61.7882L-9.55731 56.5972L-35.3074 60.4545L-27.8364 65.7893ZM-0.53125 61.6L23.9958 57.8369L15.8718 52.7898L-8.31769 56.4091L-0.53125 61.6ZM25.2742 57.6376L49.104 53.9851L40.6258 49.0819L17.1557 52.5961L25.2742 57.6376ZM39.4581 48.4068L31.3285 43.7028L8.26245 47.0675L16.0544 51.9098L39.4581 48.4068ZM40.7918 48.2075L63.7693 44.7653L55.3797 40.1942L32.6678 43.5091L40.7918 48.2075ZM65.1473 44.5606L86.9849 41.2899L78.3074 36.8461L56.7687 39.9894L65.1473 44.5606ZM88.4127 41.0741L109.807 37.8699L100.898 33.5477L79.7463 36.6358L88.4127 41.0741ZM111.28 37.654L132.276 34.5051L123.156 30.2992L102.381 33.3319L111.28 37.654ZM133.792 34.2782L153.743 31.2898L144.379 27.2001L124.678 30.0779L133.792 34.2782ZM155.309 31.0574L174.922 28.1188L165.353 24.1398L145.956 26.9732L155.309 31.0574ZM176.532 27.8808L195.785 24.9976L186.051 21.1182L166.975 23.9018L176.532 27.8808ZM197.44 24.7485L215.802 21.9981L205.901 18.2238L187.716 20.8747L197.44 24.7485ZM217.495 21.7435L235.719 19.0152L225.658 15.3406L207.606 17.9748L217.495 21.7435ZM237.462 18.7551L254.69 16.1762L244.474 12.5957L227.412 15.086L237.462 18.7551ZM256.472 15.9106L273.528 13.3538L263.19 9.86183L246.273 12.33L256.472 15.9106ZM258.165 16.5083L268.863 20.2604L286.112 17.6151L275.271 13.946L258.165 16.5083ZM287.922 17.3328L304.79 14.7484L293.821 11.1679L277.086 13.6748L287.922 17.3328ZM289.649 17.9195L301.254 21.8431L318.304 19.1591L306.561 15.324L289.649 17.9195ZM302.969 22.4242L315.227 26.5692L332.488 23.7856L320.064 19.7291L302.969 22.4242ZM316.932 27.1448L329.262 31.312L346.7 28.4232L334.237 24.3556L316.932 27.1448ZM330.95 31.8875L344.303 36.3978L361.93 33.3928L348.432 28.9876L330.95 31.8875ZM345.986 36.9678L359.146 41.4172L376.932 38.2849L363.645 33.9517L345.986 36.9678ZM360.806 41.9817L375.577 46.9734L393.551 43.7083L378.631 38.8383L360.806 41.9817ZM377.226 47.5324L391.675 52.419L409.81 49.01L395.234 44.2562L377.226 47.5324ZM393.302 52.9669L408.958 58.263L427.226 54.6935L411.471 49.5579L393.302 52.9669ZM410.569 58.8053L427.077 64.3892L445.622 60.698L428.87 55.2303L410.569 58.8053ZM428.676 64.926L445.832 70.7313L464.498 66.8574L447.254 61.2293L428.676 64.926ZM447.404 71.2626L465.489 77.3777L484.338 73.3323L466.103 67.3832L447.404 71.2626ZM467.05 77.9035L486.613 84.5167L505.639 80.2776L485.926 73.847L467.05 77.9035ZM488.151 85.0369L508.516 91.9213L527.393 87.3778L507.21 80.7923L488.151 85.0369ZM486.922 97.4388L483.513 126.028L504.349 120.859L508.002 92.8953L486.922 97.4388ZM483.408 126.924L480.165 154.113L500.724 148.601L504.233 121.756L483.408 126.924ZM480.06 155.015L476.906 181.485L497.188 175.669L500.608 149.504L480.06 155.015ZM498.074 175.414L516.878 170.024L520.52 144.163L501.488 149.266L498.074 175.414ZM497.952 176.327L494.631 201.773L513.204 196.106L516.751 170.937L497.952 176.327ZM494.51 202.692L491.283 227.401L509.629 221.491L513.077 197.025L494.51 202.692ZM491.162 228.326L488.057 252.083L506.187 245.935L509.496 222.415L491.162 228.326ZM487.935 253.013L484.908 276.207L502.816 269.837L506.054 246.87L487.935 253.013ZM484.786 277.142L481.837 299.726L499.529 293.168L502.684 270.778L484.786 277.142ZM481.709 300.673L478.887 322.3L496.38 315.526L499.396 294.115L481.709 300.673ZM478.765 323.246L475.987 344.492L493.281 337.552L496.247 316.478L478.765 323.246ZM475.865 345.449L473.187 365.925L490.282 358.814L493.143 338.515L475.865 345.449ZM473.06 366.894L470.431 387.027L487.332 379.766L490.149 359.782L473.06 366.894ZM470.304 387.995L467.769 407.398L484.482 399.993L487.194 380.74L470.304 387.995ZM467.642 408.372L465.151 427.459L481.676 419.916L484.344 400.973L467.642 408.372ZM466.745 408.77L448.859 416.695L446.568 435.937L464.249 427.868L466.745 408.77ZM446.452 436.917L444.244 455.434L461.72 447.221L464.122 428.853L446.452 436.917ZM445.555 437.326L428.244 445.223L426.241 463.89L443.347 455.854L445.555 437.326ZM427.353 445.633L408.892 454.061L407.082 472.894L425.35 464.31L427.353 445.633ZM408.006 454.46L389.296 462.999L387.724 481.992L406.197 473.309L408.006 454.46ZM388.416 463.403L368.781 472.362L367.436 491.521L386.844 482.401L388.416 463.403ZM367.912 472.761L348.183 481.765L347.098 501.079L366.562 491.931L367.912 472.761ZM347.32 482.158L326.987 491.438L326.179 510.913L346.229 501.488L347.32 482.158ZM326.129 491.831L305.011 501.466L304.491 521.101L325.316 511.317L326.129 491.831ZM304.159 501.854L282.626 511.682L282.405 531.477L303.639 521.5L304.159 501.854ZM281.779 512.069L259.449 522.263L259.549 542.219L281.558 531.876L281.779 512.069ZM258.608 522.645L235.343 533.265L235.752 553.398L258.708 542.612L258.608 522.645ZM234.507 533.641L210.722 544.499L211.513 564.787L234.922 553.791L234.507 533.641ZM209.897 544.876L185.724 555.911L186.897 576.359L210.688 565.18L209.897 544.876ZM184.905 556.281L159.36 567.942L160.81 588.617L186.073 576.746L184.905 556.281ZM158.507 567.831L145.32 550.227L146.963 570.128L159.913 587.831L158.507 567.831ZM144.373 548.96L132.696 533.381L134.506 553.105L146.011 568.827L144.373 548.96ZM131.733 532.097L120.173 516.668L122.11 536.154L133.543 551.782L131.733 532.097ZM119.199 515.368L108.38 500.929L110.46 520.232L121.13 534.815L119.199 515.368ZM107.395 499.612L97.1067 485.882L99.2207 504.875L109.464 518.876L107.395 499.612ZM96.1106 484.554L86.116 471.217L88.3297 489.983L98.2246 503.508L96.1106 484.554ZM85.1143 469.878L75.6123 457.193L77.8923 475.716L87.3224 488.605L85.1143 469.878ZM74.594 455.843L65.6565 443.906L68.0361 462.246L76.8685 474.321L74.594 455.843ZM64.6271 442.539L56.088 431.144L58.5286 449.246L67.0068 460.835L64.6271 442.539ZM55.0587 429.761L46.7078 418.621L49.187 436.485L57.4882 447.824L55.0587 429.761ZM45.6673 417.232L37.9528 406.938L40.493 424.598L48.1411 435.052L45.6673 417.232ZM36.9014 405.533L29.209 395.267L31.7823 412.688L39.4359 423.148L36.9014 405.533ZM28.1464 393.85L21.3837 384.824L24.0346 402.102L30.7142 411.233L28.1464 393.85ZM20.3157 383.396L13.1103 373.778L15.7722 390.806L22.961 400.629L20.3157 383.396ZM20.0445 381.631L17.366 364.21L10.1385 354.785L12.8336 372.007L20.0445 381.631ZM9.07043 353.39L2.45715 344.774L5.19104 361.808L11.7545 370.568L9.07043 353.39ZM8.7937 351.653L6.10968 334.48L-0.547852 326.047L2.17493 343.025L8.7937 351.653ZM5.84406 332.787L3.03827 314.857L-3.66907 306.605L-0.824524 324.342L5.84406 332.787ZM2.78369 313.207L-0.0940552 294.796L-6.85669 286.743L-3.93469 304.945L2.78369 313.207ZM-0.348633 293.191L-3.44214 273.406L-10.2602 265.515L-7.11682 285.122L-0.348633 293.191ZM-3.68567 271.835L-6.67963 252.703L-13.5419 245.061L-10.5147 263.937L-3.68567 271.835ZM-6.9176 251.176L-10.0886 230.927L-17.0007 223.511L-13.7909 243.528L-6.9176 251.176ZM-10.3155 229.443L-13.6194 208.32L-20.5868 201.175L-17.2386 222.022L-10.3155 229.443ZM-13.8463 206.887L-17.1999 185.459L-24.2116 178.58L-20.8192 199.731L-13.8463 206.887ZM-17.4158 184.064L-20.869 161.983L-27.9305 155.408L-24.433 177.18L-17.4158 184.064ZM-21.0793 160.633L-24.6654 137.705L-31.7712 131.451L-28.1464 154.058L-21.0793 160.633ZM-24.8702 136.41L-28.5836 112.646L-35.7391 106.731L-31.9814 130.151L-24.8702 136.41ZM-23.8796 137.279L-16.4639 143.809L-20.1772 119.608L-27.604 113.46L-23.8796 137.279ZM-20.371 118.358L-24.1562 93.6756L-31.5996 87.9312L-27.8032 112.204L-20.371 118.358ZM-24.3444 92.4692L-28.3345 66.47L-35.7944 61.113L-31.7878 86.7193L-24.3444 92.4692ZM-36.2925 59.7516L-10.5977 55.8999L-18.0798 50.9137L-43.4758 54.6215L-36.2925 59.7516ZM-9.35809 55.7173L14.7705 52.1035L6.97296 47.2557L-16.8347 50.7311L-9.35809 55.7173ZM265.022 9.59619L275.349 13.0827L292.034 10.5868L281.586 7.17779L265.022 9.59619ZM508.876 92.7016L505.224 120.638L524.51 115.856L528.434 87.9921L508.876 92.7016ZM505.107 121.534L501.604 148.363L520.647 143.256L524.383 116.753L505.107 121.534ZM521.533 143.018L540.863 137.832L544.892 111.661L525.263 116.531L521.533 143.018ZM521.405 143.925L517.764 169.769L536.702 164.34L540.725 138.745L521.405 143.925ZM517.637 170.682L514.089 195.835L532.911 190.091L536.563 165.254L517.637 170.682ZM513.962 196.754L510.52 221.203L528.937 215.271L532.767 191.015L513.962 196.754ZM510.387 222.133L507.078 245.636L525.152 239.504L528.793 216.2L510.387 222.133ZM506.945 246.566L503.713 269.516L521.555 263.168L525.008 240.44L506.945 246.566ZM503.58 270.457L500.426 292.836L518.146 286.267L521.416 264.115L503.58 270.457ZM500.293 293.783L497.282 315.178L514.742 308.42L518.002 287.219L500.293 293.783ZM497.144 316.129L494.178 337.192L511.145 330.38L514.587 309.383L497.144 316.129ZM494.045 338.15L491.184 358.438L508.112 351.398L511.001 331.343L494.045 338.15ZM491.051 359.406L488.234 379.379L504.897 372.223L507.963 352.372L491.051 359.406ZM488.101 380.353L485.389 399.589L501.87 392.29L504.748 373.203L488.101 380.353ZM485.251 400.574L482.584 419.501L498.655 412.168L501.71 393.28L485.251 400.574ZM481.538 420.906L465.024 428.438L462.628 446.795L478.97 439.114L481.538 420.906ZM461.593 448.212L444.127 456.419L442.002 474.211L459.28 465.937L461.593 448.212ZM443.231 456.839L426.136 464.869L424.205 482.916L441.106 474.648L443.231 456.839ZM425.245 465.29L406.988 473.868L405.267 491.831L423.314 483.353L425.245 465.29ZM406.103 474.283L387.641 482.96L386.141 501.101L404.381 492.252L406.103 474.283ZM386.766 483.37L367.37 492.484L366.069 510.946L385.261 501.533L386.766 483.37ZM366.495 492.894L347.043 502.036L345.997 520.614L365.2 511.372L366.495 492.894ZM346.179 502.44L326.141 511.859L325.355 530.653L345.134 521.029L346.179 502.44ZM325.277 512.263L304.464 522.042L303.96 541.063L324.497 531.068L325.277 512.263ZM303.611 522.44L282.394 532.413L282.183 551.483L303.108 541.478L303.611 522.44ZM281.547 532.811L259.554 543.149L259.648 562.463L281.337 551.893L281.547 532.811ZM258.713 543.542L235.774 554.322L236.173 573.83L258.813 562.872L258.713 543.542ZM234.939 554.71L211.552 565.7L212.31 585.197L235.337 574.228L234.939 554.71ZM210.722 566.093L186.947 577.267L188.076 596.935L211.485 585.59L210.722 566.093ZM186.128 577.648L160.882 589.513L162.691 609.06L187.251 597.328L186.128 577.648ZM160.029 589.408L147.096 571.732L148.657 590.62L161.773 608.246L160.029 589.408ZM146.144 570.432L134.656 554.732L136.349 573.133L147.699 589.27L146.144 570.432ZM133.693 553.415L122.27 537.803L124.041 555.639L135.375 571.749L133.693 553.415ZM121.291 536.464L110.638 521.898L112.597 540.083L123.062 554.306L121.291 536.464ZM109.647 520.548L99.4089 506.552L101.368 524.112L111.595 538.672L109.647 520.548ZM98.4128 505.185L88.5289 491.682L90.571 509.015L100.361 522.706L98.4128 505.185ZM87.5217 490.304L78.1026 477.426L80.2056 494.521L89.5582 507.598L87.5217 490.304ZM77.0844 476.031L68.263 463.978L70.4877 481.128L79.1818 493.11L77.0844 476.031ZM67.2281 462.567L58.761 450.99L60.9857 467.526L69.4473 479.64L67.2281 462.567ZM57.7206 449.573L49.4361 438.239L51.6995 454.537L59.9398 466.065L57.7206 449.573ZM48.3846 436.811L40.7475 426.369L43.0663 442.473L50.6425 453.065L48.3846 436.811ZM39.6905 424.924L32.0424 414.47L34.4276 430.591L42.0038 441.012L39.6905 424.924ZM30.9799 413.015L24.3113 403.906L26.6522 419.152L33.3429 428.997L30.9799 413.015ZM23.2377 402.434L16.0544 392.616L18.4451 407.918L25.5731 417.669L23.2377 402.434ZM14.6875 389.323L12.0311 372.345L5.47876 363.595L8.17944 380.424L14.6875 389.323ZM-1.84833 352.411L4.10632 360.358L1.37805 343.368L-4.58771 335.593L-1.84833 352.411ZM-4.87549 333.833L1.09576 341.619L-1.61591 324.691L-8.00781 316.594L-4.87549 333.833ZM-8.3288 314.834L-1.89264 322.986L-4.73163 305.299L-11.0847 297.485L-8.3288 314.834ZM-11.3504 295.825L-4.99725 303.639L-7.9082 285.487L-14.5214 277.601L-11.3504 295.825ZM-14.8092 275.957L-8.16827 283.866L-11.3061 264.303L-17.7976 256.793L-14.8092 275.957ZM-18.0466 255.216L-11.5607 262.725L-14.5823 243.904L-21.439 236.267L-18.0466 255.216ZM-21.7158 234.701L-14.8258 242.371L-18.03 222.41L-24.7263 215.226L-21.7158 234.701ZM-24.9587 213.749L-18.268 220.921L-21.605 200.124L-28.1851 193.372L-24.9587 213.749ZM-28.4175 191.928L-21.8375 198.685L-25.2244 177.583L-32.2582 170.682L-28.4175 191.928ZM-32.5182 169.255L-25.4457 176.183L-28.9322 154.479L-35.966 147.926L-32.5182 169.255ZM-36.1874 146.57L-29.148 153.123L-32.7673 130.582L-39.862 124.334L-36.1874 146.57ZM-40.0778 123.028L-32.972 129.276L-36.7242 105.917L-43.7635 100.09L-40.0778 123.028ZM-43.9683 98.8279L-36.9234 104.655L-40.7419 80.8753L-48.0746 75.2139L-43.9683 98.8279ZM-35.9438 105.469L-28.7828 111.396L-32.5681 87.1841L-39.7679 81.6224L-35.9438 105.469ZM-32.7562 85.9722L-36.7518 60.4268L-43.996 55.2801L-39.9616 80.4104L-32.7562 85.9722ZM-44.4608 53.9132L-19.1258 50.2164L-26.5526 45.2689L-51.4725 48.7942L-44.4608 53.9132ZM286.721 0.902136L271.63 3.04383L281.663 6.31448L296.904 4.08977L286.721 0.902136ZM549.059 83.2549L529.314 87.7874L525.39 115.635L545.03 110.759L549.059 83.2549ZM495.478 432.284L479.739 439.684L477.227 457.542L492.971 449.844L495.478 432.284ZM3.76324 387.613L9.8009 395.842L7.37695 380.757L1.26178 372.395L3.76324 387.613ZM-48.2794 73.9909L-40.9356 79.6633L-44.9589 54.5939L-51.9927 49.4582L-48.2794 73.9909Z" fill="#E5E7EB"/>
</svg>
