<svg width="480" height="499" viewBox="0 0 480 499" fill="none" xmlns="http://www.w3.org/2000/svg">
<path d="M526.682 400.933C526.91 400.572 526.869 400.759 507.894 374.436L507.832 374.349L502.991 369.508L510.035 364.912L539.644 344.715C539.93 344.475 539.839 344.707 538.782 326.479C538.795 326.413 538.787 326.351 538.762 326.288C535.155 307.439 535.238 307.6 535.06 307.459L514.926 291.225L495.781 280.532L491.379 264.248L512.673 246.629C513.054 246.314 512.95 246.484 503.243 228.277C502.469 227.12 492.311 210.625 492.033 210.501L474.877 202.982L461.282 201.125C445.355 178.595 450.651 185.645 437.814 169.639C449.79 155.974 450.072 156.306 449.62 155.825C432.004 137.22 438.754 144.05 420.222 125.942C420.044 125.781 420.227 125.843 407.368 125.035C407.207 125.022 407.339 124.985 399.637 129.217C377.995 110.504 386.402 117.359 363.104 99.2221C367.39 92.0809 367.345 92.2591 367.307 92.0353C365.568 80.8656 365.667 81.0728 365.444 80.8863C345.194 66.8693 353.041 72.0169 331.28 58.3438C330.878 58.091 323.751 63.852 323.705 63.9183L318.869 70.7196C297.981 59.4214 306.396 63.6282 281.719 52.3466L278.882 40.9738L270.327 27.3836C270.215 27.2054 270.347 27.3049 251.493 20.0974C251.489 20.0974 251.489 20.0933 251.484 20.0933L232.547 13.7479C232.087 13.636 232.286 13.6153 220.882 33.5674C216.765 32.6349 220.911 33.269 197.6 30.3926L186.639 15.642L170.029 1.21875C169.834 1.06126 151.448 0.17431 151.348 0.170166C132.063 1.28921 133.326 1.30993 133.401 1.2602C133.194 1.39697 119.644 31.8101 116.84 38.2052L104.33 29.17L78.7462 16.5994C78.4232 16.4377 78.6344 16.4336 64.9314 25.5849L52.2927 36.8665L31.9557 91.7618C26.7131 91.1484 26.7006 91.0365 26.5267 91.4053L2.07759 159.344L0.284485 179.213C0.963628 208.088 1.12099 205.37 1.05473 205.32C1.13341 205.378 1.05887 205.341 32.7343 216.005L60.753 218.048L63.8009 227.539C62.8401 228.078 61.5812 228.795 61.6641 228.741C61.3701 228.927 29.4835 293.459 29.8355 294.047L46.2716 321.617L66.8653 349.78C67.0889 349.942 66.9026 349.904 99.4062 343.356L121.478 329.476L146.781 355.549L175.002 378.85L160.848 400.92L155.489 432.013C155.394 432.568 155.609 432.27 186.457 452.185C218.182 468.867 217.979 468.929 218.306 468.635C248.755 441.102 237.947 450.751 265.788 426.182C266.144 426.323 270.5 428.03 270.823 428.159L301.493 435.776L306.313 465.054C321.424 497.904 321.233 497.8 321.622 497.829L349.679 498.907C374.625 496.346 374.492 496.387 374.62 496.304C410.661 473.712 397.599 481.956 431.9 460.176L440.174 468.2C440.497 468.436 440.385 468.527 504.391 428.78L517.286 415.766L526.682 400.933ZM470.972 448.587L447.782 427.197L478.972 406.06L503.488 428.407L470.972 448.587ZM404.316 476.742L381.226 478.006L412.454 457.299L437.081 455.94L404.316 476.742ZM321.813 496.831L307.191 465.054L334.365 444.302L350.49 476.957L321.813 496.831ZM302.275 435.611L328.344 414.03L334.067 443.518L306.98 464.208L302.275 435.611ZM271.759 427.57L297.016 405.347L327.751 413.483L301.745 435.014L271.759 427.57ZM243.36 444.907L211.241 427.728L237.732 401.675L271.809 419.799L243.36 444.907ZM186.585 451.319L156.5 432.001L178.713 407.494L209.945 427.889L186.585 451.319ZM175.478 378.208L147.584 355.176L167.25 328.547L196.871 352.843L175.478 378.208ZM85.0324 320.507L116.347 315.202L98.9465 342.655L67.913 348.885L85.0324 320.507ZM63.4406 291.822L80.9368 259.245L103.539 288.05L84.7425 319.433L63.4406 291.822ZM88.1009 214.794L109.287 248.627L81.0445 258.039L62.4426 229.222L88.1009 214.794ZM33.3554 215.246L46.6194 184.543L75.3587 187.486L60.811 217.248L33.3554 215.246ZM1.8167 204.752L14.0206 172.942L45.8326 184.348L32.5438 215.109L1.8167 204.752ZM12.9107 147.623L25.3465 114.458L27.0195 136.698L14.091 170.518L12.9107 147.623ZM58.1234 95.6121L56.732 119.891L26.0298 112.307L27.2597 92.0187L58.1234 95.6121ZM53.1955 37.1317L65.2089 26.4014L87.3887 40.7458L74.6423 54.4645L53.1955 37.1317ZM104.148 30.0196C119.379 41.0277 114.807 37.6871 124.187 44.6335L111.039 54.9121L88.7304 40.6547L104.148 30.0196ZM151.195 0.978364L163.42 15.1861L143.455 17.1465L134.303 1.95649L151.195 0.978364ZM186.113 16.2802L196.577 30.3595L177.686 30.1605L165.13 15.9238L186.113 16.2802ZM217.668 33.6751L226.369 47.5969L208.906 45.4583L198.267 31.2837L217.668 33.6751ZM238.829 38.4497L245.12 51.2524L227.404 47.7378L218.757 33.9031L238.829 38.4497ZM255.394 32.581L259.526 43.8667L239.384 37.77L233.284 25.7217L255.394 32.581ZM278.153 41.3675L280.804 51.9777L260.491 44.1734L256.383 32.9498L278.153 41.3675ZM301.737 62.3807L302.644 72.9121L284.638 64.5151L281.959 53.3372L301.737 62.3807ZM366.375 92.2135L362.454 98.7454L343.281 85.3667L345.91 77.9644L366.375 92.2135ZM407.277 125.93L425.212 143.258L416.806 145.99L400.254 129.793L407.277 125.93ZM446.854 182.189L434.749 181.982L422.247 166.07L432.575 164.392L446.854 182.189ZM460.201 200.985L446.85 199.227L435.329 182.794L447.487 183.001L460.201 200.985ZM474.566 203.745L487.097 224.012L473.059 220.667L461.828 202.008L474.566 203.745ZM498.166 245.738L482.803 240.528L473.535 221.604L487.673 224.974L498.166 245.738ZM494.816 280.018L476.243 270.204L472.371 253.451L489.644 260.887L494.816 280.018ZM514.362 291.822L517.568 312.338L498.456 300.385L495.939 281.539L514.362 291.822ZM538.6 344.454L509.77 364.124L490.435 355.62L518.33 335.332L538.6 344.454ZM507.028 374.672L495.636 390.803L475.659 368.033L486.443 354.099L507.028 374.672ZM429.677 401.94L459.596 380.098L478.446 405.454L447.239 426.596L429.677 401.94ZM335.015 443.804L365.228 420.669L382.899 454.518L351.157 476.493L335.015 443.804ZM179.259 406.897L203.795 379.882L237.024 401.248L210.521 427.309L179.259 406.897ZM167.138 327.362L140.95 300.977L161.262 270.154L189.343 297.914L167.138 327.362ZM85.5749 319.603L104.268 288.39L136.718 283.872L116.927 314.29L85.5749 319.603ZM14.3063 172.192L27.6572 137.274L60.6247 149.79L46.1473 183.61L14.3063 172.192ZM90.7016 88.931L87.3017 104.689L84.0675 103.578C85.8275 100.126 84.2704 103.508 90.7016 88.931ZM75.3215 54.908L88.0761 41.1852L110.463 55.4965L99.9031 68.2204L75.3215 54.908ZM131.777 41.9519C131.781 41.9519 131.781 41.9519 131.786 41.9478L140.958 37.8239L158.425 52.7942L145.836 59.6701L125.624 44.7205L131.777 41.9519ZM177.338 30.9729L190.478 45.6738L174.824 47.916L159.506 32.925L177.338 30.9729ZM208.487 46.2416L219.337 60.9218L204.98 61.5269L192.134 46.3618L208.487 46.2416ZM226.915 48.4672L235.264 62.0035L220.323 60.9052L209.564 46.3493L226.915 48.4672ZM259.87 44.8076L264.566 57.3118L246.122 51.4762L239.869 38.7523L259.87 44.8076ZM362.036 99.4334L357.774 106.309L340.56 94.3563L343.024 86.1666L362.036 99.4334ZM416.582 146.91L431.946 163.679L421.664 165.353L407.774 149.819L416.582 146.91ZM445.79 199.107L431.954 197.603L422.102 182.831L434.344 182.781L445.79 199.107ZM455.948 216.535L440.758 213.107L432.459 198.465L446.378 199.977L455.948 216.535ZM472.525 221.364L481.73 240.163L465.448 234.597L457.472 217.716L472.525 221.364ZM475.312 269.727L456.772 260.29L453.525 245.249L471.46 253.061L475.312 269.727ZM497.682 300.845L497.367 318.658L477.022 303.854L478.157 288.427L497.682 300.845ZM428.931 401.492L422.26 403.933L421.357 402.068L440.187 388.549L456.465 381.391L428.931 401.492ZM365.692 419.695L358.942 389.216L388.717 393.539L399.865 423.819L365.692 419.695ZM325.478 379.273L323.614 352.089L351.087 360.258L357.874 388.167L325.478 379.273ZM222.219 324.199L234.841 304.276L263.357 323.167L255.253 346.39L222.219 324.199ZM161.85 269.607L182.307 257.583L206.665 281.174L189.881 297.322L161.85 269.607ZM137.629 282.832L110.562 249.041L136.043 240.354L160.583 269.42L137.629 282.832ZM121.843 157.591L148.569 160.84L156.516 180.402L130.262 180.655L121.843 157.591ZM61.5109 149.206L57.5644 120.923L87.045 128.209L91.7327 153.197L61.5109 149.206ZM100.624 68.6059L111.142 55.9275L133.376 69.9404L124.833 81.6531L100.624 68.6059ZM174.53 48.7905L189.923 63.8147L177.491 68.1417L159.945 53.0429L174.53 48.7905ZM357.348 106.989L352.846 114.039L337.574 103.412L340.307 95.1562L357.348 106.989ZM367.899 126.552L348.676 149.72L334.344 138.517L353.025 115.158L367.899 126.552ZM420.719 165.498L409.824 167.144L397.488 153.396L406.95 150.097L420.719 165.498ZM431.209 197.93L409.199 219.735L399.877 205.266L421.303 183.072L431.209 197.93ZM439.996 213.385L417.481 235.103L409.621 220.443L431.635 198.635L439.996 213.385ZM447.181 228.774L424.053 250.728L417.854 235.857L440.369 214.14L447.181 228.774ZM452.511 244.449L428.666 266.436L424.359 251.545L447.487 229.591L452.511 244.449ZM455.981 260.41L431.201 282.128L428.89 267.323L452.73 245.34L455.981 260.41ZM457.178 274.982L431.904 296.663L431.325 283.085L456.084 261.388L457.178 274.982ZM477.395 287.947L476.264 303.319L456.292 289.385L457.902 275.828L477.395 287.947ZM497.301 319.599L493.595 336.563L473.15 319.205L476.84 304.716L497.301 319.599ZM466.073 333.363L472.827 319.984L493.35 337.408L486.277 352.814L466.073 333.363ZM440.145 387.691L423.726 361.522L440.642 355.093L459.058 379.377L440.145 387.691ZM358.752 388.379L351.952 360.432L377.838 364.518L388.398 392.689L358.752 388.379ZM323.552 351.235L321.461 325.82L345.053 333.206L350.884 359.362L323.552 351.235ZM235.268 303.601L246.834 285.137L270.774 301.172L263.626 322.388L235.268 303.601ZM264.326 322.819L271.478 301.591L295.641 314.916L293.409 338.536L264.326 322.819ZM296.237 314.327C249.236 288.415 226.617 272.98 184.249 223.9C166.14 197.656 172.19 207.579 157.477 180.647L149.24 160.376L144.565 141.617L143.389 128.997L147.696 126.179L160.189 121.035L174.066 117.653L189.024 116.194C208.583 116.596 201.319 116.132 220.749 118.395C253.63 126.075 260.367 129.312 285.483 142.019C346.916 178.6 373.225 213.087 395.467 257.053L401.302 272.549L405.29 288.228L407.302 303.207L407.132 318.302L404.759 331.995L403.066 335.904L388.94 337.616L368.21 336.737L345.517 332.514C316.297 323.366 327.631 327.627 296.237 314.327ZM183.024 257.165L202.329 246.028L222.65 265.686L207.241 280.619L183.024 257.165ZM136.858 240.081L160.856 232.052L181.756 256.974L161.287 269.006L136.858 240.081ZM168.629 202.676L183.297 223.933L161.15 231.112L144.553 206.298L168.629 202.676ZM183.806 224.613L201.77 245.427L182.456 256.568L161.672 231.787L183.806 224.613ZM117.027 134.555L116.207 115.382L142.142 124.247L143.72 141.128L117.027 134.555ZM156.044 84.0445L149.158 94.5511L125.545 82.0344L134.059 70.3673L156.044 84.0445ZM164.877 77.007L150.445 105.174L144.47 110.549L144.669 108.829L145.729 105.945L156.93 84.1689L164.877 77.007ZM176.414 69.6503L161.846 98.1693L151.766 104.349L166.521 75.5564L176.414 69.6503ZM174.166 94.1201L159.813 120.326L148.416 125.022L162.438 98.7703L174.166 94.1201ZM352.379 114.686L333.698 138.04L319.125 127.944L337.185 104.121L352.379 114.686ZM409.128 167.567L388.568 189.848L376.761 176.465L396.788 153.819L409.128 167.567ZM431.134 297.322L407.936 317.485L408.097 303.402L430.554 283.761L431.134 297.322ZM429.163 311.297L405.729 331.092L407.89 318.588L430.989 298.507L429.163 311.297ZM455.107 290.728L451.774 302.005L425.941 322.931L429.859 311.757L455.107 290.728ZM476.148 304.218L472.467 318.633L452.581 302.1L456.084 290.218L476.148 304.218ZM445.674 313.589L452.221 302.842L472.198 319.454L465.468 332.779L445.674 313.589ZM435.321 323.101L431.229 325.588L439.681 318.666L435.321 323.101ZM423.072 330.541L421.328 331.067L425.399 324.403L450.573 304.007L444.862 313.386L426.326 328.564L423.072 330.541ZM423.378 326.172L420.177 331.419L415.949 332.7L423.378 326.172ZM424.753 323.901L414.089 333.264L406.958 335.431L403.985 335.792L405.476 332.356L428.662 312.769L424.753 323.901ZM407.998 302.42L406.109 288.328L428.182 267.974L430.488 282.749L407.998 302.42ZM405.911 287.424L402.134 272.583L423.705 252.162L428.012 267.041L405.911 287.424ZM401.852 271.745L396.307 257.011L417.237 236.458L423.432 251.317L401.852 271.745ZM395.951 256.236L388.667 241.834L409.033 221.04L416.885 235.683L395.951 256.236ZM388.253 241.104L379.441 226.466L399.306 205.859L408.619 220.315L388.253 241.104ZM378.989 225.782L369.237 211.914L388.526 191.075L398.846 205.179L378.989 225.782ZM388.025 190.437L368.736 211.276L357.634 198.237L376.227 177.07L388.025 190.437ZM357.087 197.64L344.763 184.982L362.992 163.555L375.681 176.482L357.087 197.64ZM344.183 184.423L331.126 172.511L348.784 150.851L362.412 162.999L344.183 184.423ZM330.513 171.993L316.798 161.246L333.847 139.147L348.171 150.337L330.513 171.993ZM286.27 141.555L302.59 118.93L317.966 128.151L301.161 150.424L286.27 141.555ZM318.641 128.587L333.201 138.67L316.156 160.769L301.836 150.86L318.641 128.587ZM318.45 127.509L303.058 118.279L320.388 94.0164L336.51 103.686L318.45 127.509ZM301.882 118.54L285.562 141.161L270.099 133.34L286.054 110.454L301.882 118.54ZM285.313 110.11L269.362 132.996L254.077 126.751L269.631 103.396L285.313 110.11ZM268.861 103.106L253.307 126.465L237.616 121.553L252.979 97.6969L268.861 103.106ZM252.176 97.4648L236.808 121.325L221.47 117.744L236.436 93.4155L252.176 97.4648ZM235.595 93.2497L220.633 117.579L205.303 115.788L219.917 90.6759L235.595 93.2497ZM219.035 90.5971L204.421 115.709L189.716 115.411L204.342 89.7724L219.035 90.5971ZM203.402 89.8055L188.788 115.415L174.75 116.783L189.289 90.7712L203.402 89.8055ZM188.266 90.9577L173.764 116.907L160.881 120.045L175.309 93.7015L188.266 90.9577ZM147.24 125.528L143.306 128.093L142.921 123.953L143.455 119.336L151.062 105.713L161.109 99.5536L147.24 125.528ZM149.244 107.325L143.691 117.264L144.329 111.751L149.244 107.325ZM152.764 90.5101L147.977 99.8147L149.65 95.2598L152.764 90.5101ZM143.844 108.978L142.668 119.153L142.176 123.41L116.232 114.545L118.774 97.5725L143.844 108.978ZM345.918 333.401L367.837 337.479L377.519 363.66L351.753 359.59L345.918 333.401ZM378.414 363.772L368.719 337.558L388.667 338.399L401.707 364.377L378.414 363.772ZM389.537 338.345L406.801 336.252L422.463 361.024L402.598 364.361L389.537 338.345ZM407.629 336.057L423.084 331.374L440.145 354.426L423.295 360.834L407.629 336.057ZM440.878 354.065L423.821 331.021L435.495 323.934L454.333 345.105L440.878 354.065ZM454.941 344.583L436.116 323.433L445.173 314.219L465.025 333.463L454.941 344.583ZM455.492 289.364L430.074 310.539L431.904 297.715L457.066 276.134L455.492 289.364ZM399.409 204.594L389.081 190.474L409.646 168.188L420.827 182.408L399.409 204.594ZM376.211 175.877L363.514 162.945L383.222 140.034L396.237 153.23L376.211 175.877ZM362.934 162.39L349.293 150.234L368.516 127.057L382.638 139.483L362.934 162.39ZM339.616 94.692L336.878 102.969L320.711 93.2787L322.095 83.742L339.616 94.692ZM319.689 93.6186L302.354 117.881L286.518 109.791L303.903 84.9812L319.689 93.6186ZM303.174 84.6248L285.785 109.443L270.078 102.716L286.692 77.322L303.174 84.6248ZM285.934 77.0194L269.316 102.418L253.422 97.0006L269.846 71.0429L285.934 77.0194ZM269.055 70.7901L252.627 96.756L236.87 92.7026L252.76 66.2227L269.055 70.7901ZM251.936 66.0362L236.046 92.5161L220.347 89.9381L236.216 62.907L251.936 66.0362ZM235.347 62.8076L219.486 89.8221L204.785 88.9973L220.331 61.7093L235.347 62.8076ZM219.399 61.7175L203.874 88.9725L189.749 89.9423L205.042 62.3227L219.399 61.7175ZM204.06 62.4428L188.784 90.0335L175.797 92.7813L190.921 64.3494L204.06 62.4428ZM174.762 93.03L162.989 97.6969L177.69 68.9209L189.836 64.6851L174.762 93.03ZM159.075 53.3496L176.725 68.5354L166.248 74.7938L146.54 60.1882L159.075 53.3496ZM145.807 60.6441L165.585 75.2994L156.562 83.4228L134.643 69.7871L145.807 60.6441ZM148.793 95.2681L144.047 108.191L118.981 96.785L125.143 82.7307L148.793 95.2681ZM118.012 97.2285L115.47 114.284L88.0678 104.95L92.2089 85.7397L118.012 97.2285ZM115.399 115.104L116.219 134.36L87.7945 127.563L87.9974 105.766L115.399 115.104ZM87.8939 128.413L116.298 135.206L120.745 156.65L92.5692 153.305L87.8939 128.413ZM117.155 135.413L143.836 141.986L148.325 160.003L121.582 156.749L117.155 135.413ZM156.868 181.202L168.194 201.934L144.085 205.56L130.655 181.455L156.868 181.202ZM143.675 206.431L160.363 231.373L136.341 239.409L117.209 210.289L143.675 206.431ZM223.25 266.221L246.188 284.66L234.626 303.12L207.841 281.149L223.25 266.221ZM255.949 346.825L264.061 323.582L293.322 339.398L290.142 365.04L255.949 346.825ZM294.179 338.925L296.416 315.272L320.633 325.534L322.724 350.916L294.179 338.925ZM389.288 392.78L378.716 364.58L402.113 365.181L415.733 392.312L389.288 392.78ZM402.971 365.103L422.922 361.754L439.338 387.914L416.603 392.258L402.971 365.103ZM438.278 388.93L421.005 401.335L416.963 393L438.278 388.93ZM459.762 378.983L441.359 354.708L454.871 345.71L474.554 367.987L459.762 378.983ZM475.121 367.419L455.476 345.188L465.601 334.022L485.871 353.527L475.121 367.419ZM489.636 355.214L486.907 353.357L494.22 337.429L497.997 320.121L517.609 334.868L489.636 355.214ZM457.969 274.924L456.875 261.243L475.519 270.73L477.328 286.96L457.969 274.924ZM453.297 244.271L448.303 229.516L464.851 235.24L471.104 252.029L453.297 244.271ZM464.392 234.233L447.955 228.546L441.201 214.028L456.474 217.476L464.392 234.233ZM421.552 182.035L410.408 167.865L421.341 166.215L433.731 181.982L421.552 182.035ZM396.896 152.754L383.843 139.524L391.574 134.907L406.333 149.463L396.896 152.754ZM383.246 138.948L369.067 126.477L375.035 120.932L390.945 134.348L383.246 138.948ZM368.45 125.963L353.492 114.507L357.994 107.47L374.405 120.422L368.45 125.963ZM342.328 85.7024L339.86 93.9045L322.206 82.8716L323.088 73.998L342.328 85.7024ZM321.345 83.3026L319.962 92.8559L304.164 84.2145L303.547 74.2425L321.345 83.3026ZM302.718 73.8281L303.339 83.8249L286.899 76.5386L284.829 65.4891L302.718 73.8281ZM283.938 65.0912L286.017 76.1946L269.995 70.243L265.887 58.6049L283.938 65.0912ZM269.047 69.957L252.855 65.4187L246.602 52.4668L264.918 58.2651L269.047 69.957ZM245.563 52.1559L251.861 65.2032L236.266 62.103L227.975 48.6662L245.563 52.1559ZM204.027 61.6388L190.809 63.5619L175.541 48.6206L191.111 46.3908L204.027 61.6388ZM173.876 48.1481L159.22 52.4212L141.869 37.5462L158.483 33.0659L173.876 48.1481ZM141.012 36.9494C140.896 36.9577 141.004 36.9287 132.49 40.7583L143.36 18.2489L157.825 32.4193L141.012 36.9494ZM145.149 60.155L133.922 69.3395L111.755 55.368L124.853 45.1267L145.149 60.155ZM124.435 82.3494L118.248 96.4576L92.4657 84.9771L100.181 69.2773L124.435 82.3494ZM87.1982 105.493L87.0035 127.372L57.5147 120.086L58.9144 95.8111L87.1982 105.493ZM56.7361 120.716L60.6661 148.949L27.8063 136.474L26.0464 113.135L56.7361 120.716ZM46.9507 183.772L61.4073 150.002L91.625 153.993L75.7314 186.719L46.9507 183.772ZM120.957 157.483L129.417 180.659L102.168 180.755L92.8218 154.142L120.957 157.483ZM129.748 181.459L143.236 205.685L116.757 209.543L102.533 181.555L129.748 181.459ZM116.335 210.418L135.558 239.674L110.065 248.362L88.9002 214.562L116.335 210.418ZM109.759 249.315L136.78 283.056L104.197 287.59L81.5414 258.719L109.759 249.315ZM118.426 313.453L137.819 283.653L159.92 270.734L140.151 300.733L118.426 313.453ZM207.261 281.709L234.195 303.8L221.577 323.715L190.473 297.856L207.261 281.709ZM254.984 347.177L246.726 372.269L208.313 346.634L221.793 324.879L254.984 347.177ZM207.208 348.035L203.344 379.186L179.234 405.728L183.682 375.729L207.208 348.035ZM204.156 379.161L208.09 347.447L246.465 373.06L237.442 400.564L204.156 379.161ZM247.426 372.7L255.692 347.592L290.038 365.894L287.032 393.642L247.426 372.7ZM290.904 365.413L294.084 339.75L322.794 351.811L324.654 378.97L290.904 365.413ZM325.2 380.023L357.576 388.913L328.513 412.853L297.728 404.708L325.2 380.023ZM358.176 389.46L364.918 419.898L334.779 442.976L329.048 413.449L358.176 389.46ZM383.669 454.265L366.069 420.549L400.171 424.661L411.733 456.458L383.669 454.265ZM400.743 423.89L389.582 393.572L416.127 393.104L430.385 422.543L400.743 423.89ZM422.612 404.655L426.227 403.337L423.026 405.512L422.612 404.655ZM479.08 404.974L460.242 379.625L475.084 368.592L495.098 391.408L479.08 404.974ZM498.15 319.23L498.469 301.338L517.696 313.365L517.878 334.064L498.15 319.23ZM497.578 299.829L478.19 287.499L476.372 271.178L495.069 281.058L497.578 299.829ZM472.123 252.473L465.828 235.575L482.207 241.175L489.275 259.854L472.123 252.473ZM483.188 241.506L498.171 246.588L488.294 255.005L483.188 241.506ZM471.966 220.402L457.012 216.78L447.372 200.106L460.814 201.871L471.966 220.402ZM432.898 163.534L417.415 146.636L425.85 143.897L442.58 162.357L432.898 163.534ZM415.949 146.272L407.178 149.173L392.282 134.484L399.525 130.203L415.949 146.272ZM391.674 133.917L375.61 120.368L381.387 114.495L398.904 129.639L391.674 133.917ZM374.989 119.858L358.425 106.786L362.682 99.9101L380.766 113.985L374.989 119.858ZM345.223 77.5085L342.589 84.9232L323.184 73.1193L324.343 64.8094L345.223 77.5085ZM322.438 72.6925L319.577 71.1051L323.407 65.7171L322.438 72.6925ZM322.326 73.5462L321.444 82.453L303.48 73.31L302.578 62.82C321.444 73.024 317.614 70.9393 322.326 73.5462ZM283.731 64.167L265.539 57.6268L260.864 45.1764L281.035 52.9268L283.731 64.167ZM238.361 37.5213L227.01 34.9517L232.473 25.8833L238.361 37.5213ZM207.891 45.4417L191.459 45.566L178.406 30.9646L197.178 31.1635L207.891 45.4417ZM176.692 30.2393L158.769 32.208L144.138 17.8842L164.061 15.9238L176.692 30.2393ZM142.788 17.5941L131.351 41.2681L127.222 43.1248L120.534 31.7769L133.67 2.45799L142.788 17.5941ZM126.485 43.4523L124.886 44.1734L117.503 38.6901L120.137 32.6804L126.485 43.4523ZM99.4724 68.896C89.5089 89.1838 92.9129 81.9349 84.788 100.354L61.5564 88.4295L74.8825 55.5752L99.4724 68.896ZM84.4402 101.079L83.3014 103.317L59.0635 95.0153L61.2624 89.1797L84.4402 101.079ZM76.4023 187.175L92.1717 154.706L101.452 181.119L84.8626 212.917L76.4023 187.175ZM101.878 182.031L115.925 209.667L88.1755 213.862C88.0637 213.878 88.0057 213.928 85.637 215.263L85.2146 213.978L101.878 182.031ZM84.9247 215.661L83.9226 216.224L84.6845 214.906L84.9247 215.661ZM117.453 314.953L139.111 302.27L121.255 328.667L100.483 341.731L117.453 314.953ZM140.494 301.657L166.654 328.008L146.996 354.621L122.054 328.916L140.494 301.657ZM167.726 327.909L189.935 298.449L221.105 324.361L197.389 352.234L167.726 327.909ZM218.529 328.63L207.444 346.518L186.49 371.187L197.766 353.029L218.529 328.63ZM182.705 376.861L178.27 406.793L156.512 430.795L161.564 401.314L182.705 376.861ZM238.146 400.987L247.174 373.471L286.812 394.434L272.356 419.186L238.146 400.987ZM290.808 366.238L324.351 379.708L296.834 404.439L284.758 399.536C288.759 392.685 287.164 399.876 290.808 366.238ZM383.528 455.057L411.137 457.212L379.664 478.08L352.217 476.746L383.528 455.057ZM412.599 456.495L401.028 424.673L430.699 423.33L438.091 455.082L412.599 456.495ZM431.403 422.82L423.382 406.242L429.018 402.404L446.572 427.04L434.257 435.084L431.403 422.82ZM504.134 427.914L479.61 405.57L495.628 392.009L516.454 415.468L504.134 427.914ZM516.946 414.821L496.179 391.421L507.55 375.323L525.862 400.73L516.946 414.821ZM489.603 356.121L508.971 364.651L502.411 368.932L489.603 356.121ZM518.682 334.611L518.499 313.884L537.996 326.657L538.977 343.745L518.682 334.611ZM537.818 325.58L518.462 312.905L515.286 292.539L534.443 307.99L537.818 325.58ZM488.596 255.801L499.115 246.832L511.294 246.729L491.151 263.398C490.153 259.697 490.708 261.384 488.596 255.801ZM499.214 246.028L488.704 225.235L502.631 228.82L511.753 245.924L499.214 246.028ZM491.599 211.184L502.026 227.837L488.203 224.277L475.825 204.259L491.599 211.184ZM433.507 164.267L442.406 163.186L437.305 169.005L433.507 164.267ZM443.396 162.063L426.683 143.623L434.542 141.07L448.784 156.107L443.396 162.063ZM419.767 126.618L433.905 140.432L426.074 142.977L408.404 125.905L419.767 126.618ZM366.371 91.2313L346.188 77.1811L348.565 70.1767L364.847 81.4459L366.371 91.2313ZM331.093 59.1728L347.877 69.7166L345.492 76.7334L324.737 64.109L331.093 59.1728ZM269.722 27.9224L277.507 40.2568L256.015 31.951L252.006 21.1502L269.722 27.9224ZM251.016 20.7813L255.046 31.636L232.899 24.7601L232.858 14.6887L251.016 20.7813ZM232.058 15.6254L232.1 24.9466L226.191 34.7652L221.697 33.7498L232.058 15.6254ZM169.606 1.91504L185.222 15.4638L164.413 15.1115L152.288 1.01981L169.606 1.91504ZM78.6012 17.42L103.369 29.5844L88.0016 40.1863L65.9004 25.8957L78.6012 17.42ZM74.1992 55.1276L60.8814 87.9653L40.3787 71.1382L52.7565 37.8073L74.1992 55.1276ZM40.0889 71.934L60.5708 88.7486L58.2808 94.8246L32.7757 91.8571L40.0889 71.934ZM25.2181 112.522L13.0681 144.929L14.0247 128.736L26.3155 94.3563L25.2181 112.522ZM13.0681 131.376L12.1156 147.465L1.35289 176.274L2.86854 159.468L13.0681 131.376ZM1.08372 179.275L12.2109 149.504L13.3828 172.366L1.64277 202.962L1.08372 179.275ZM61.4819 217.7L75.8971 188.207L84.3532 213.878L82.5518 216.995L64.5132 227.137L61.4819 217.7ZM80.4109 258.532L62.9437 291.059L45.5096 262.946L61.9208 229.893L80.4109 258.532ZM45.0913 263.804L62.5047 291.872L46.5904 320.594L30.6347 293.824L45.0913 263.804ZM47.0749 321.369L63.0224 292.589L84.2994 320.171L67.0682 348.731L47.0749 321.369ZM175.851 379.008L194.188 357.269L182.978 375.319L164.55 396.635L175.851 379.008ZM217.975 467.856L187.31 451.729L210.649 428.316L242.722 445.475L217.975 467.856ZM272.861 419.907L284.348 400.236L296.163 405.032L270.84 427.309L266.463 425.585C272.877 419.927 272.795 420.019 272.861 419.907ZM351.136 477.496L378.542 478.826L349.525 498.103L322.865 497.079L351.136 477.496ZM374.277 495.575L351.207 497.95L379.909 478.88L402.913 477.62L374.277 495.575ZM440.464 467.371L432.596 459.736L438.808 455.795C439.176 455.559 439.064 455.733 434.451 435.917L447.098 427.653L470.264 449.027L440.464 467.371Z" fill="#E5E7EB"/>
</svg>
