<svg width="32" height="32" viewBox="0 0 32 32" fill="none" xmlns="http://www.w3.org/2000/svg">
<path d="M16 4H10.6667C6.98477 4 4 6.98477 4 10.6667V21.3333C4 25.0152 6.98477 28 10.6667 28H21.3333C25.0152 28 28 25.0152 28 21.3333V10.6667C28 6.98477 25.0152 4 21.3333 4H16Z" stroke="white" stroke-width="3" stroke-linecap="round" stroke-linejoin="round"/>
<path d="M16.0003 10.6667C18.9458 10.6667 21.3337 13.0546 21.3337 16.0001C21.3337 18.9456 18.9458 21.3334 16.0003 21.3334C13.0548 21.3334 10.667 18.9455 10.667 16.0001C10.667 13.0546 13.0548 10.6667 16.0003 10.6667Z" stroke="white" stroke-width="3" stroke-linecap="round" stroke-linejoin="round"/>
<path d="M22.667 11.3333C23.7716 11.3333 24.667 10.4378 24.667 9.33325C24.667 8.22868 23.7716 7.33325 22.667 7.33325C21.5624 7.33325 20.667 8.22868 20.667 9.33325C20.667 10.4378 21.5624 11.3333 22.667 11.3333Z" fill="white"/>
</svg>
