<svg width="427" height="204" viewBox="0 0 427 204" fill="none" xmlns="http://www.w3.org/2000/svg">
<path d="M393.485 22.5056L392.715 12.8301L371.562 18.4092L370.853 9.50785L349.64 14.3515L348.989 6.17502L327.721 10.3264L327.124 2.82854L305.803 6.33705L305.301 0.0217365L305.26 -0.524122L283.889 2.37195L283.426 -3.43321L283.395 -3.88428L261.976 -1.56582L261.551 -6.89126L261.526 -7.25193L240.065 -5.47624L239.679 -10.3471L239.657 -10.628L218.156 -9.36462L217.8 -13.8012L217.783 -14.0053L-36.6546 -4.86473L-36.9895 -4.85297L115.406 170.156L115.583 170.357L123.618 165.683L134.275 178.761L134.506 179.043L143.048 174.073L153.137 187.365L153.415 187.733L162.499 182.449L171.998 195.963L172.321 196.43L181.966 190.817L191.222 205.128L201.453 199.171L209.704 213.151L210.109 213.833L220.968 207.514L228.557 221.738L228.987 222.543L240.503 215.842L247.856 231.26L260.064 224.154L266.249 238.897L266.706 239.982L279.644 232.449L285.547 248.709L426.552 166.659L414.576 16.1386L393.485 22.5056ZM391.057 14.6756L391.721 23.0381L372.393 28.8704L371.667 19.787L391.057 14.6756ZM21.7739 13.1733L218.165 -3.08504L218.66 3.1293L49.3482 21.4759L142.605 154.154L133.005 159.733L21.7739 13.1733ZM132.418 160.077L123.809 165.084L-7.20631 4.31812L217.702 -8.88182L218.124 -3.66132L21.0348 12.6567L20.5611 12.6964L132.418 160.077ZM349.858 35.6704L330.208 41.6L329.361 30.9483L349.068 25.7497L349.858 35.6704ZM350.517 25.3683L370.061 20.2131L370.79 29.3543L351.3 35.2352L350.517 25.3683ZM79.7061 30.8727L219.362 11.9464L220.039 20.4416L107.528 38.9387L106.938 39.0358L166.626 140.167L154.823 147.042L79.7061 30.8727ZM153.969 147.534L143.314 153.733L50.7395 22.0245L218.709 3.82332L219.292 11.1245L78.7027 30.1791L78.143 30.2559L153.969 147.534ZM307.993 48.3036L288.026 54.3287L287.053 42.1073L307.086 36.8242L307.993 48.3036ZM308.206 36.5282L328.076 31.2885L328.933 41.9848L309.115 47.9648L308.206 36.5282ZM137.623 48.5628L220.977 32.2799L221.872 43.5229L165.161 56.4717L164.557 56.612L196.197 122.963L181.787 131.345L137.623 48.5628ZM180.664 131.999L167.611 139.597L108.668 39.7195L220.112 21.3883L220.892 31.1921L135.75 47.8272L180.664 131.999ZM266.13 60.9359L245.838 67.0592L244.741 53.265L265.089 47.8978L266.13 60.9359ZM265.898 47.6872L286.085 42.3604L287.064 54.6188L266.93 60.6944L265.898 47.6872ZM195.513 66.2442L223.101 58.9688L224.263 73.5668L222.188 74.193L224.914 81.693L226.782 105.171L214.799 112.145L195.513 66.2442ZM213.347 112.976L197.471 122.216L166.57 57.4057L221.975 44.7562L222.993 57.5918L193.973 65.2463L193.374 65.4047L213.347 112.976ZM223.585 58.8449L244.105 53.4402L245.205 67.2586L224.751 73.4306L223.585 58.8449ZM227.217 105.397L227.288 105.356L225.542 83.4267L238.13 118.097L221.389 127.837L214.959 112.532L227.217 105.397ZM224.997 76.5549L224.867 74.9641L245.321 68.7921L248.749 111.912L239.733 117.155L224.997 76.5549ZM249.333 112.224L249.427 112.17L245.96 68.5993L266.252 62.476L270.72 118.665L245.594 133.288L239.928 117.691L249.333 112.224ZM244.631 51.8858L243.668 39.801L264.077 35.1411L264.979 46.5186L244.631 51.8858ZM243.989 52.0543L223.476 57.4657L222.455 44.6446L243.025 39.9475L243.989 52.0543ZM222.355 43.4189L221.46 32.1873L242.084 28.1604L242.923 38.7196L222.355 43.4189ZM196.379 123.341L203.487 138.255L189.74 146.252L181.988 131.719L196.379 123.341ZM197.66 122.597L213.522 113.367L219.952 128.673L204.776 137.511L197.66 122.597ZM220.173 129.195L226.545 144.373L212.065 152.798L205.013 138.015L220.173 129.195ZM221.608 128.357L238.325 118.632L243.985 134.223L227.979 143.53L221.608 128.357ZM244.226 134.89L249.838 150.35L234.569 159.231L228.252 144.187L244.226 134.89ZM245.835 133.955L271.45 119.05L271.568 118.981L267.052 62.2345L287.183 56.1599L292.692 125.412L251.448 149.412L245.835 133.955ZM293.567 125.876L293.707 125.795L288.142 55.8706L308.112 49.8446L314.661 132.163L257.297 165.543L251.733 150.217L293.567 125.876ZM286.941 40.729L286.098 30.1151L306.182 25.5282L306.973 35.449L286.941 40.729ZM285.976 40.9812L265.786 46.3058L264.883 34.9565L285.133 30.3338L285.976 40.9812ZM264.784 33.7277L263.996 23.8731L284.296 19.9078L285.025 29.0992L264.784 33.7277ZM263.978 33.9123L243.572 38.5713L242.735 28.0311L263.195 24.0339L263.978 33.9123ZM242.648 26.9464L241.919 17.8052L262.433 14.4311L263.112 22.9483L242.648 26.9464ZM242.001 27.0718L221.379 31.1009L220.597 21.3116L241.271 17.9117L242.001 27.0718ZM220.524 20.3596L219.849 11.8803L240.568 9.07252L241.194 16.9606L220.524 20.3596ZM166.835 140.534L175.203 154.713L163.996 161.238L155.044 147.397L166.835 140.534ZM167.823 139.963L180.86 132.375L188.614 146.907L176.188 154.14L167.823 139.963ZM188.881 147.401L196.567 161.814L184.773 168.683L176.48 154.629L188.881 147.401ZM190.009 146.746L203.732 138.762L210.782 153.548L197.7 161.16L190.009 146.746ZM211.085 154.179L218.074 168.833L205.653 176.059L198.03 161.772L211.085 154.179ZM212.363 153.433L226.824 145.02L233.143 160.066L219.359 168.085L212.363 153.433ZM233.463 160.851L239.733 175.767L226.65 183.382L219.717 168.851L233.463 160.851ZM234.903 160.015L250.135 151.159L255.696 166.487L241.176 174.938L234.903 160.015ZM256.031 167.416L261.548 182.6L247.763 190.623L241.55 175.835L256.031 167.416ZM257.643 166.48L315.849 132.608L309.236 49.508L329.048 43.5298L336.637 138.914L263.159 181.668L257.643 166.48ZM337.801 139.529L337.991 139.421L330.329 43.1432L349.979 37.2136L358.615 145.659L269.015 197.794L263.542 182.738L337.801 139.529ZM329.251 29.5721L328.523 20.4279L348.287 15.9154L348.957 24.3736L329.251 29.5721ZM327.963 29.9133L308.094 35.1468L307.306 25.2671L327.23 20.7174L327.963 29.9133ZM307.211 24.0427L306.534 15.5726L326.513 11.6732L327.137 19.4952L307.211 24.0427ZM306.082 24.3025L285.997 28.8841L285.269 19.7231L305.408 15.7896L306.082 24.3025ZM285.181 18.6415L284.552 10.7878L304.738 7.4708L305.318 14.7059L285.181 18.6415ZM284.212 18.8306L263.909 22.7915L263.233 14.2985L283.582 10.9549L284.212 18.8306ZM263.163 13.3541L262.588 6.09518L282.985 3.323L283.517 10.0003L263.163 13.3541ZM262.352 13.4871L241.838 16.8612L241.213 8.99213L261.771 6.20481L262.352 13.4871ZM241.149 8.16849L240.62 1.45679L261.219 -0.776289L261.709 5.38337L241.149 8.16849ZM240.504 8.25725L219.783 11.0659L219.212 3.77481L239.973 1.52351L240.504 8.25725ZM219.143 3.08389L218.648 -3.11898L239.459 -4.8522L239.91 0.822449L219.143 3.08389ZM142.836 154.503L152.338 168.021L143.284 173.29L133.251 160.074L142.836 154.503ZM143.551 154.086L154.191 147.894L163.143 161.735L153.052 167.607L143.551 154.086ZM163.444 162.205L172.328 175.919L162.806 181.461L153.387 168.062L163.444 162.205ZM164.292 161.712L175.485 155.2L183.778 169.254L173.164 175.433L164.292 161.712ZM184.14 169.848L192.363 183.784L182.353 189.626L173.554 176.021L184.14 169.848ZM185.126 169.275L196.898 162.423L204.526 176.711L193.353 183.212L185.126 169.275ZM204.918 177.453L212.474 191.617L201.931 197.751L193.777 183.935L204.918 177.453ZM206.046 176.797L218.435 169.589L225.363 184.119L213.604 190.964L206.046 176.797ZM225.786 185.005L232.653 199.411L221.553 205.867L214.061 191.825L225.786 185.005ZM227.067 184.261L240.11 176.672L246.321 191.457L233.935 198.664L227.067 184.261ZM246.758 192.497L252.915 207.154L241.234 213.961L234.424 199.683L246.758 192.497ZM248.198 191.661L261.932 183.668L267.405 198.732L254.359 206.322L248.198 191.661ZM267.835 199.928L273.25 214.85L260.945 222.01L254.846 207.489L267.835 199.928ZM269.445 198.99L359.916 146.344L360.13 146.221L351.417 36.7688L370.906 30.8878L380.58 152.406L274.868 213.921L269.445 198.99ZM382.033 153.171L382.269 153.035L372.509 30.404L391.84 24.5708L402.56 159.153L280.73 230.045L275.36 215.254L382.033 153.171ZM369.334 11.0993L369.948 18.8264L350.401 23.9825L349.73 15.5746L369.334 11.0993ZM347.614 7.53878L348.194 14.6901L328.431 19.2026L327.812 11.4208L347.614 7.53878ZM325.897 3.9858L326.421 10.5736L306.445 14.4773L305.872 7.2793L325.897 3.9858ZM304.183 0.445593L304.664 6.51885L284.48 9.83806L283.95 3.18809L304.183 0.445593ZM282.461 -3.09195L282.908 2.4976L262.514 5.26052L262.025 -0.87709L282.461 -3.09195ZM260.747 -6.62068L261.158 -1.48352L240.554 0.748239L240.105 -4.91054L260.747 -6.62068ZM239.033 -10.141L239.407 -5.43112L218.602 -3.70805L218.191 -8.91753L239.033 -10.141ZM115.647 169.832L-36.1953 -4.5428L217.325 -13.6495L217.667 -9.33729L-7.80892 3.8971L-8.21908 3.92039L123.343 165.355L115.647 169.832ZM134.603 178.33L124.075 165.411L132.662 160.411L142.693 173.625L134.603 178.33ZM153.571 186.826L143.627 173.728L152.664 168.47L162.08 181.87L153.571 186.826ZM172.544 195.321L163.202 182.03L172.703 176.504L181.503 190.114L172.544 195.321ZM191.525 203.808L182.805 190.322L192.792 184.508L200.959 198.327L191.525 203.808ZM210.512 212.294L202.431 198.597L212.938 192.482L220.43 206.524L210.512 212.294ZM229.513 220.774L222.086 206.856L233.14 200.422L239.949 214.7L229.513 220.774ZM248.521 229.245L241.773 215.096L253.409 208.325L259.509 222.851L248.521 229.245ZM267.546 237.71L261.5 223.313L273.746 216.188L279.116 230.979L267.546 237.71ZM424.526 165.897L286.573 246.17L281.254 231.511L404.15 160.002L404.412 159.853L393.607 24.0458L412.777 18.2612L424.526 165.897Z" fill="#3B82F6"/>
</svg>
