<svg width="56" height="56" viewBox="0 0 56 56" fill="none" xmlns="http://www.w3.org/2000/svg">
<mask id="path-1-inside-1_47_5520" fill="white">
<path d="M32.8608 9.66759H43.4702C43.774 9.66759 44.0171 9.41217 44.0171 9.08013C44.0171 8.76086 43.774 8.49268 43.4702 8.49268H32.8608C32.557 8.49268 32.314 8.76086 32.314 9.08013C32.314 9.41217 32.557 9.66759 32.8608 9.66759Z"/>
</mask>
<path d="M32.8608 9.66759H43.4702C43.774 9.66759 44.0171 9.41217 44.0171 9.08013C44.0171 8.76086 43.774 8.49268 43.4702 8.49268H32.8608C32.557 8.49268 32.314 8.76086 32.314 9.08013C32.314 9.41217 32.557 9.66759 32.8608 9.66759Z" fill="#2563EB"/>
<path d="M32.8608 11.0009H43.4702V8.33426H32.8608V11.0009ZM43.4702 11.0009C44.5906 11.0009 45.3504 10.0658 45.3504 9.08013H42.6838C42.6838 8.75859 42.9575 8.33426 43.4702 8.33426V11.0009ZM45.3504 9.08013C45.3504 8.1268 44.6087 7.15934 43.4702 7.15934V9.82601C42.9393 9.82601 42.6838 9.39492 42.6838 9.08013H45.3504ZM43.4702 7.15934H32.8608V9.82601H43.4702V7.15934ZM32.8608 7.15934C31.7223 7.15934 30.9806 8.1268 30.9806 9.08013H33.6473C33.6473 9.39492 33.3917 9.82601 32.8608 9.82601V7.15934ZM30.9806 9.08013C30.9806 10.0658 31.7405 11.0009 32.8608 11.0009V8.33426C33.3736 8.33426 33.6473 8.75859 33.6473 9.08013H30.9806Z" fill="#2563EB" mask="url(#path-1-inside-1_47_5520)"/>
<mask id="path-3-inside-2_47_5520" fill="white">
<path d="M32.8608 13.9205H43.4702C43.774 13.9205 44.0171 13.6651 44.0171 13.3331C44.0171 13.0138 43.774 12.7456 43.4702 12.7456H32.8608C32.557 12.7456 32.314 13.0138 32.314 13.3331C32.314 13.6651 32.557 13.9205 32.8608 13.9205Z"/>
</mask>
<path d="M32.8608 13.9205H43.4702C43.774 13.9205 44.0171 13.6651 44.0171 13.3331C44.0171 13.0138 43.774 12.7456 43.4702 12.7456H32.8608C32.557 12.7456 32.314 13.0138 32.314 13.3331C32.314 13.6651 32.557 13.9205 32.8608 13.9205Z" fill="#2563EB"/>
<path d="M32.8608 15.2539H43.4702V12.5872H32.8608V15.2539ZM43.4702 15.2539C44.5906 15.2539 45.3504 14.3187 45.3504 13.3331H42.6838C42.6838 13.0115 42.9575 12.5872 43.4702 12.5872V15.2539ZM45.3504 13.3331C45.3504 12.3797 44.6087 11.4123 43.4702 11.4123V14.0789C42.9393 14.0789 42.6838 13.6479 42.6838 13.3331H45.3504ZM43.4702 11.4123H32.8608V14.0789H43.4702V11.4123ZM32.8608 11.4123C31.7223 11.4123 30.9806 12.3797 30.9806 13.3331H33.6473C33.6473 13.6479 33.3917 14.0789 32.8608 14.0789V11.4123ZM30.9806 13.3331C30.9806 14.3187 31.7405 15.2539 32.8608 15.2539V12.5872C33.3736 12.5872 33.6473 13.0115 33.6473 13.3331H30.9806Z" fill="#2563EB" mask="url(#path-3-inside-2_47_5520)"/>
<mask id="path-5-inside-3_47_5520" fill="white">
<path d="M44.0171 17.5855C44.0171 17.2662 43.774 16.998 43.4702 16.998H32.8608C32.557 16.998 32.314 17.2662 32.314 17.5855C32.314 17.9175 32.557 18.1857 32.8608 18.1857H43.4702C43.774 18.1857 44.0171 17.9175 44.0171 17.5855Z"/>
</mask>
<path d="M44.0171 17.5855C44.0171 17.2662 43.774 16.998 43.4702 16.998H32.8608C32.557 16.998 32.314 17.2662 32.314 17.5855C32.314 17.9175 32.557 18.1857 32.8608 18.1857H43.4702C43.774 18.1857 44.0171 17.9175 44.0171 17.5855Z" fill="#2563EB"/>
<path d="M45.3504 17.5855C45.3504 16.6322 44.6087 15.6647 43.4702 15.6647V18.3314C42.9393 18.3314 42.6838 17.9003 42.6838 17.5855H45.3504ZM43.4702 15.6647H32.8608V18.3314H43.4702V15.6647ZM32.8608 15.6647C31.7223 15.6647 30.9806 16.6322 30.9806 17.5855H33.6473C33.6473 17.9003 33.3917 18.3314 32.8608 18.3314V15.6647ZM30.9806 17.5855C30.9806 18.5323 31.7046 19.5191 32.8608 19.5191V16.8524C33.4094 16.8524 33.6473 17.3028 33.6473 17.5855H30.9806ZM32.8608 19.5191H43.4702V16.8524H32.8608V19.5191ZM43.4702 19.5191C44.6265 19.5191 45.3504 18.5323 45.3504 17.5855H42.6838C42.6838 17.3028 42.9216 16.8524 43.4702 16.8524V19.5191Z" fill="#2563EB" mask="url(#path-5-inside-3_47_5520)"/>
<mask id="path-7-inside-4_47_5520" fill="white">
<path d="M23.1025 8.49268H12.4932C12.1893 8.49268 11.9463 8.76086 11.9463 9.08013C11.9463 9.41217 12.1893 9.66759 12.4932 9.66759H23.1025C23.4064 9.66759 23.6494 9.41217 23.6494 9.08013C23.6494 8.76086 23.4064 8.49268 23.1025 8.49268Z"/>
</mask>
<path d="M23.1025 8.49268H12.4932C12.1893 8.49268 11.9463 8.76086 11.9463 9.08013C11.9463 9.41217 12.1893 9.66759 12.4932 9.66759H23.1025C23.4064 9.66759 23.6494 9.41217 23.6494 9.08013C23.6494 8.76086 23.4064 8.49268 23.1025 8.49268Z" fill="#2563EB"/>
<path d="M23.1025 7.15934H12.4932V9.82601H23.1025V7.15934ZM12.4932 7.15934C11.3547 7.15934 10.613 8.1268 10.613 9.08013H13.2796C13.2796 9.39492 13.024 9.82601 12.4932 9.82601V7.15934ZM10.613 9.08013C10.613 10.0658 11.3728 11.0009 12.4932 11.0009V8.33426C13.0059 8.33426 13.2796 8.75859 13.2796 9.08013H10.613ZM12.4932 11.0009H23.1025V8.33426H12.4932V11.0009ZM23.1025 11.0009C24.2229 11.0009 24.9827 10.0657 24.9827 9.08013H22.3161C22.3161 8.7586 22.5898 8.33426 23.1025 8.33426V11.0009ZM24.9827 9.08013C24.9827 8.1268 24.2411 7.15934 23.1025 7.15934V9.82601C22.5717 9.82601 22.3161 9.39492 22.3161 9.08013H24.9827Z" fill="#2563EB" mask="url(#path-7-inside-4_47_5520)"/>
<path d="M23.1025 16.998H12.4932C12.1893 16.998 11.9463 17.2662 11.9463 17.5855C11.9463 17.9175 12.1893 18.1857 12.4932 18.1857H23.1025C23.4064 18.1857 23.6494 17.9175 23.6494 17.5855C23.6494 17.2662 23.4064 16.998 23.1025 16.998Z" fill="#2563EB"/>
<path d="M23.1025 12.7456H12.4932C12.1893 12.7456 11.9463 13.0138 11.9463 13.3331C11.9463 13.6651 12.1893 13.9205 12.4932 13.9205H23.1025C23.4064 13.9205 23.6494 13.6651 23.6494 13.3331C23.6494 13.0138 23.4064 12.7456 23.1025 12.7456Z" fill="#2563EB"/>
<path d="M23.1025 21.251H12.4932C12.1893 21.251 11.9463 21.5192 11.9463 21.8384C11.9463 22.1705 12.1893 22.4387 12.4932 22.4387H23.1025C23.4064 22.4387 23.6494 22.1705 23.6494 21.8384C23.6494 21.5192 23.4064 21.251 23.1025 21.251Z" fill="#2563EB"/>
<path d="M23.1025 25.5034H12.4932C12.1893 25.5034 11.9463 25.7716 11.9463 26.0909C11.9463 26.4229 12.1893 26.6783 12.4932 26.6783H23.1025C23.4064 26.6783 23.6494 26.4229 23.6494 26.0909C23.6494 25.7716 23.4064 25.5034 23.1025 25.5034Z" fill="#2563EB"/>
<mask id="mask0_47_5520" style="mask-type:luminance" maskUnits="userSpaceOnUse" x="0" y="0" width="56" height="56">
<path d="M0 0H56V56H0V0Z" fill="white"/>
</mask>
<g mask="url(#mask0_47_5520)">
<path d="M49.8266 35.0304L45.6825 38.619H41.5506C41.1252 38.5424 40.6877 38.5424 40.2502 38.619H36.5315C34.4655 38.619 32.4481 39.0532 30.528 39.8833C30.1269 39.7045 29.6044 39.4491 29.0089 39.1554C31.6096 37.5846 34.5506 36.7417 37.5401 36.7417H46.3266C47.2867 36.7417 48.0644 35.9116 48.0644 34.8772V6.93462H48.7693C49.3526 6.93462 49.8266 7.45823 49.8266 8.12231V35.0304ZM43.7259 40.3175C43.6773 40.1387 43.6044 39.9599 43.5193 39.7939H44.3214L43.7259 40.3175ZM33.5662 40.1132C34.1738 39.9855 34.7936 39.9089 35.4256 39.8578C34.7693 39.9727 34.1495 40.0621 33.5662 40.1132ZM28.5349 3.24386C29.4221 1.94124 30.8196 1.17499 32.3144 1.17499H46.3266C46.679 1.17499 46.9707 1.48149 46.9707 1.85184V34.8772C46.9707 35.2603 46.679 35.5668 46.3266 35.5668H37.5401C34.3926 35.5668 31.2936 36.4352 28.5349 38.0954V3.24386ZM27.429 38.0954C26.2016 37.3547 24.8891 36.7672 23.5401 36.3458C18.8735 33.9704 15.3249 32.3741 13.9881 32.8211C12.8457 33.1148 11.0106 34.0471 9.06618 35.1709C9.01757 35.0815 9.00541 34.9793 9.00541 34.8772V1.85184C9.00541 1.48149 9.28493 1.17499 9.63736 1.17499H23.6374C25.1443 1.17499 26.5419 1.94124 27.429 3.24386V38.0954ZM6.13736 36.9333V8.12231C6.13736 7.45823 6.61132 6.93462 7.19465 6.93462H7.89951V34.8772C7.89951 35.1837 7.97243 35.4774 8.09396 35.7328C7.43771 36.1287 6.78146 36.5374 6.13736 36.9333ZM54.9429 33.2169C53.995 32.489 52.7068 32.5273 51.8075 33.3191L50.9203 34.0854V8.12231C50.9203 6.81969 49.9603 5.75971 48.7693 5.75971H48.0644V1.85184C48.0644 0.830178 47.2867 -0.0126953 46.3266 -0.0126953H32.3144C30.6495 -0.0126953 29.0818 0.766323 27.9881 2.08172C26.8943 0.766323 25.3144 -0.0126953 23.6374 -0.0126953H9.63736C8.67729 -0.0126953 7.89951 0.830178 7.89951 1.85184V5.75971H7.19465C6.00368 5.75971 5.04361 6.81969 5.04361 8.12231V37.4313C5.04361 37.4952 5.05576 37.559 5.06791 37.6229C2.41861 39.3342 0.255411 40.8922 0.0974261 41.1349C-0.0605593 41.403 -0.0241016 41.8117 0.218951 41.9905C0.474162 42.1693 0.790133 42.131 0.960273 41.8628C1.43423 41.403 10.8405 34.8516 14.2797 33.9577C15.6044 33.5107 21.9724 36.8183 25.7641 38.7978C28.5957 40.2664 30.2363 41.1093 30.9533 41.2753C32.7519 41.6712 37.4429 40.8411 40.0193 39.8833C40.1287 39.8322 40.2381 39.8195 40.3474 39.7939H41.4655C41.7572 39.8705 42.0488 39.9599 42.3162 40.126C42.5471 40.2792 42.6929 40.5346 42.6929 40.8284C42.7051 41.0965 42.5835 41.3392 42.3769 41.4924L42.3283 41.5307C39.4846 43.4591 33.2988 46.4603 23.6374 45.0683C23.3457 45.0299 23.0662 45.2471 23.0176 45.5663C22.9811 45.8984 23.1877 46.1921 23.4915 46.2304C25.2537 46.4858 26.9065 46.6008 28.4499 46.6008C35.6929 46.6008 40.5054 44.1615 42.936 42.5013C42.9481 42.5013 42.9603 42.4886 42.9724 42.4758C42.9846 42.4758 42.9846 42.4758 42.9967 42.463L52.5002 34.2386C53.0106 33.7789 53.7519 33.7533 54.2988 34.1748C54.6391 34.4429 54.8578 34.8772 54.8943 35.3369C54.9308 35.7967 54.7728 36.2436 54.469 36.5629C48.2346 43.1782 35.146 55.1827 32.8127 54.8252C27.4776 54.0717 20.344 52.1816 14.6443 50.0106C9.95333 48.2354 4.04708 53.6758 3.79187 53.9057C3.56097 54.11 3.53666 54.4931 3.74326 54.7358C3.9377 54.9784 4.29013 55.0039 4.52104 54.7868C4.56965 54.7358 10.1842 49.5636 14.2797 51.1216C20.0523 53.3054 27.271 55.2211 32.6669 56.0001C32.7155 56.0001 32.7762 56.0001 32.8249 56.0001C36.4707 56.0001 51.4551 41.403 55.2346 37.4058C55.7693 36.8311 56.0488 36.0521 55.9881 35.2475C55.9394 34.4302 55.5506 33.7022 54.9429 33.2169Z" fill="#2563EB"/>
</g>
</svg>
