<svg width="56" height="56" viewBox="0 0 56 56" fill="none" xmlns="http://www.w3.org/2000/svg">
<g id="Clip path group">
<mask id="mask0_421_5795" style="mask-type:luminance" maskUnits="userSpaceOnUse" x="0" y="0" width="56" height="56">
<g id="78004783f6">
<path id="Vector" d="M0.666667 0.666667H55.3333V55.3333H0.666667V0.666667Z" fill="white" stroke="white" stroke-width="1.33333"/>
</g>
</mask>
<g mask="url(#mask0_421_5795)">
<g id="Group">
<g id="Vector_2">
<mask id="path-2-inside-1_421_5795" fill="white">
<path d="M13.2827 0.0605469C13.1125 0.0605469 12.9545 0.133466 12.8452 0.267147L6.10038 8.42166C5.7844 8.81055 6.05176 9.38173 6.55003 9.38173H9.81913V16.4546L7.95975 14.2064C7.85038 14.0727 7.68024 13.9998 7.49794 13.9998C7.33996 13.9998 7.16982 14.0727 7.0726 14.2064L0.327806 22.3609C0.011832 22.7498 0.279195 23.321 0.777458 23.321H4.04656V29.8713C4.04656 44.2237 15.6889 55.8661 30.0413 55.8661C30.1021 55.8661 30.1629 55.854 30.2236 55.8296L34.2462 55.8661C34.5743 55.8661 34.8295 55.6109 34.8295 55.2828V50.1543C37.0049 49.6439 39.0709 48.8053 40.9788 47.6387L44.5882 51.248C44.8191 51.479 45.1837 51.479 45.4146 51.248L51.4181 45.2689C51.6368 45.038 51.6368 44.6612 51.4181 44.4425L47.7844 40.821C48.9632 38.9251 49.8139 36.8592 50.3365 34.696H55.4528C55.7809 34.696 56.0361 34.4408 56.0361 34.1126V25.6543C56.0361 25.3262 55.7809 25.071 55.4528 25.071H50.3243C49.8139 22.8956 48.9632 20.8296 47.7966 18.9338L51.4181 15.3244C51.6368 15.0935 51.6368 14.729 51.4181 14.498L45.4146 8.51888C45.1837 8.28798 44.8191 8.28798 44.5882 8.51888L40.9667 12.1404C39.0709 10.9616 37.0049 10.1109 34.8295 9.58832V4.48416C34.8295 4.15604 34.5743 3.90082 34.2584 3.90082L30.017 3.86437C30.017 3.86437 30.017 3.86437 30.0049 3.86437C28.5952 3.87652 27.1733 3.88867 25.7636 3.90082C25.4476 3.90082 25.1924 4.15604 25.1924 4.48416V9.58832C23.017 10.1109 20.9511 10.9616 19.0552 12.1404C18.2896 11.3748 17.524 10.6092 16.7584 9.84353V9.38173H20.0275C20.5257 9.38173 20.7931 8.81055 20.4771 8.42166L13.7445 0.267147C13.6229 0.133466 13.4528 0.0605469 13.2827 0.0605469ZM13.2827 1.55534L18.8 8.21506H16.2722C16.2358 8.21506 16.1993 8.20291 16.175 8.20291C15.8469 8.21506 15.5917 8.47027 15.5917 8.79839V29.4095C15.5917 29.4338 15.5917 29.4581 15.6038 29.4824C15.5917 29.6161 15.5917 29.7376 15.5917 29.8713C15.5917 37.8314 22.0691 44.3088 30.0413 44.3088C30.1872 44.3088 30.3209 44.3088 30.4667 44.3088C30.491 44.3088 30.5153 44.3088 30.5275 44.2967C30.6611 44.2967 30.7827 44.2967 30.9042 44.2845C30.9163 44.2845 30.9406 44.2845 30.9528 44.2845C31.0865 44.2724 31.2323 44.2602 31.366 44.248C33.8938 44.0171 36.2271 43.1421 38.208 41.781C38.2202 41.7689 38.2202 41.7689 38.2323 41.7567C38.3295 41.696 38.4268 41.623 38.524 41.5501C38.5483 41.538 38.5847 41.5137 38.5969 41.5015C38.682 41.4286 38.767 41.3678 38.8521 41.3071C38.8764 41.2828 38.9129 41.2706 38.9372 41.2463C39.0344 41.1612 39.1316 41.0883 39.241 41.0033C39.2653 40.9668 39.3139 40.9425 39.3504 40.906C39.4111 40.8574 39.4719 40.8088 39.5205 40.7602C39.5813 40.7116 39.6299 40.663 39.6785 40.6144C39.7271 40.5779 39.7636 40.5415 39.8122 40.505C39.8608 40.4564 39.9094 40.4078 39.9702 40.3592C40.0066 40.3105 40.0552 40.2741 40.0917 40.2376C40.1525 40.1769 40.2011 40.1283 40.2497 40.0796C40.3347 39.9946 40.4077 39.9095 40.4927 39.8366C40.5292 39.788 40.5778 39.7394 40.6143 39.6908C40.6629 39.6421 40.7236 39.5814 40.7722 39.5328C40.8087 39.4842 40.8452 39.4477 40.8816 39.4112C40.9302 39.3383 40.991 39.2776 41.0518 39.2046C41.0761 39.1803 41.1125 39.1439 41.1368 39.1074C41.4528 38.7307 41.7566 38.3296 42.0361 37.9043L42.1334 37.7585C43.616 35.4859 44.491 32.7758 44.491 29.8592C44.491 21.8991 38.0136 15.4217 30.0413 15.4217C24.0865 15.4217 18.9702 19.031 16.7584 24.1838V11.4842C17.3538 12.0796 17.9372 12.6751 18.5327 13.2585C18.7271 13.4529 19.0309 13.4894 19.2618 13.3314C21.2792 12.031 23.5396 11.0831 25.8851 10.5849C26.1525 10.5241 26.3469 10.2932 26.3469 10.0137V5.05534C27.5622 5.04319 28.7896 5.04319 30.0049 5.03104L33.6629 5.05534V10.0137C33.6629 10.2932 33.8573 10.5241 34.1247 10.5849C36.4823 11.0831 38.7306 12.0189 40.7601 13.3314C40.991 13.4894 41.2948 13.4529 41.4893 13.2585L45.0014 9.74631L50.1785 14.9112L46.6663 18.4112C46.4719 18.6057 46.4476 18.9095 46.5934 19.1404C47.9059 21.1699 48.8295 23.406 49.3278 25.7637C49.3764 26.0432 49.6195 26.2255 49.899 26.2255H54.8695V33.5293H49.9111C49.6316 33.5293 49.4007 33.7237 49.34 33.9911C48.8295 36.3487 47.8938 38.5849 46.5813 40.6144C46.4354 40.8453 46.4597 41.1491 46.6663 41.3435L50.1785 44.8435L45.0014 50.0206L41.5014 46.5085C41.307 46.314 41.0032 46.2897 40.7722 46.4355C38.7427 47.7359 36.4945 48.6595 34.1247 49.1578C33.8573 49.2185 33.6629 49.4616 33.6629 49.729V54.6994L30.017 54.6751C29.9441 54.663 29.8834 54.6751 29.8226 54.6994C16.1993 54.5779 5.21322 43.5189 5.20107 29.8713V22.7376C5.20107 22.7255 5.20107 22.7133 5.20107 22.7012C5.18892 22.3852 4.93371 22.1421 4.61774 22.1421C4.59343 22.1421 4.55697 22.1421 4.53267 22.1543H2.00489L7.51009 15.4946L13.0153 22.1543H10.4875C10.4632 22.1421 10.4268 22.1421 10.3903 22.1421C10.0743 22.1543 9.81913 22.4095 9.81913 22.7376C9.81913 22.7498 9.81913 22.7498 9.81913 22.7498V29.8592C9.81913 41.0276 18.8851 50.0814 30.0413 50.0814C30.3695 50.0935 30.6247 49.8262 30.6247 49.5102C30.6247 49.1821 30.3695 48.9269 30.0413 48.9269C19.5049 48.9269 10.9858 40.3956 10.9858 29.8592V23.321H14.2549C14.7532 23.321 15.0205 22.7498 14.7045 22.3609L10.9858 17.8644V8.79839C10.9858 8.47027 10.7184 8.20291 10.3903 8.20291C10.366 8.20291 10.3417 8.21506 10.3052 8.21506H7.77746L13.2827 1.55534ZM30.0413 16.5883C37.3816 16.5883 43.3243 22.5189 43.3243 29.8713C43.3243 32.3869 42.6195 34.7446 41.4042 36.7498C38.682 33.2619 34.4893 31.196 30.0413 31.196C25.5813 31.196 21.3886 33.2498 18.6663 36.7376C17.4511 34.7324 16.7584 32.3869 16.7584 29.8713C16.7584 22.5189 22.7011 16.5883 30.0413 16.5883ZM30.0413 20.7324C27.4893 20.7324 25.4111 22.8105 25.4111 25.3626C25.4111 27.9147 27.4893 29.9807 30.0413 29.9807C32.5934 29.9807 34.6716 27.9147 34.6716 25.3626C34.6716 22.8105 32.5934 20.7324 30.0413 20.7324ZM30.0413 21.8991C31.9615 21.8991 33.5049 23.4425 33.5049 25.3626C33.5049 27.2828 31.9615 28.8262 30.0413 28.8262C28.1212 28.8262 26.5778 27.2828 26.5778 25.3626C26.5778 23.4425 28.1212 21.8991 30.0413 21.8991ZM30.0413 32.3505C34.2462 32.3626 38.1594 34.3921 40.6629 37.7585C38.2323 41.0154 34.4893 43.0206 30.4302 43.1421C30.2966 43.1421 30.175 43.1543 30.0413 43.1543C25.8365 43.1421 21.9111 41.1126 19.4198 37.7463C21.9233 34.38 25.8365 32.3626 30.0413 32.3505Z"/>
</mask>
<path d="M13.2827 0.0605469C13.1125 0.0605469 12.9545 0.133466 12.8452 0.267147L6.10038 8.42166C5.7844 8.81055 6.05176 9.38173 6.55003 9.38173H9.81913V16.4546L7.95975 14.2064C7.85038 14.0727 7.68024 13.9998 7.49794 13.9998C7.33996 13.9998 7.16982 14.0727 7.0726 14.2064L0.327806 22.3609C0.011832 22.7498 0.279195 23.321 0.777458 23.321H4.04656V29.8713C4.04656 44.2237 15.6889 55.8661 30.0413 55.8661C30.1021 55.8661 30.1629 55.854 30.2236 55.8296L34.2462 55.8661C34.5743 55.8661 34.8295 55.6109 34.8295 55.2828V50.1543C37.0049 49.6439 39.0709 48.8053 40.9788 47.6387L44.5882 51.248C44.8191 51.479 45.1837 51.479 45.4146 51.248L51.4181 45.2689C51.6368 45.038 51.6368 44.6612 51.4181 44.4425L47.7844 40.821C48.9632 38.9251 49.8139 36.8592 50.3365 34.696H55.4528C55.7809 34.696 56.0361 34.4408 56.0361 34.1126V25.6543C56.0361 25.3262 55.7809 25.071 55.4528 25.071H50.3243C49.8139 22.8956 48.9632 20.8296 47.7966 18.9338L51.4181 15.3244C51.6368 15.0935 51.6368 14.729 51.4181 14.498L45.4146 8.51888C45.1837 8.28798 44.8191 8.28798 44.5882 8.51888L40.9667 12.1404C39.0709 10.9616 37.0049 10.1109 34.8295 9.58832V4.48416C34.8295 4.15604 34.5743 3.90082 34.2584 3.90082L30.017 3.86437C30.017 3.86437 30.017 3.86437 30.0049 3.86437C28.5952 3.87652 27.1733 3.88867 25.7636 3.90082C25.4476 3.90082 25.1924 4.15604 25.1924 4.48416V9.58832C23.017 10.1109 20.9511 10.9616 19.0552 12.1404C18.2896 11.3748 17.524 10.6092 16.7584 9.84353V9.38173H20.0275C20.5257 9.38173 20.7931 8.81055 20.4771 8.42166L13.7445 0.267147C13.6229 0.133466 13.4528 0.0605469 13.2827 0.0605469ZM13.2827 1.55534L18.8 8.21506H16.2722C16.2358 8.21506 16.1993 8.20291 16.175 8.20291C15.8469 8.21506 15.5917 8.47027 15.5917 8.79839V29.4095C15.5917 29.4338 15.5917 29.4581 15.6038 29.4824C15.5917 29.6161 15.5917 29.7376 15.5917 29.8713C15.5917 37.8314 22.0691 44.3088 30.0413 44.3088C30.1872 44.3088 30.3209 44.3088 30.4667 44.3088C30.491 44.3088 30.5153 44.3088 30.5275 44.2967C30.6611 44.2967 30.7827 44.2967 30.9042 44.2845C30.9163 44.2845 30.9406 44.2845 30.9528 44.2845C31.0865 44.2724 31.2323 44.2602 31.366 44.248C33.8938 44.0171 36.2271 43.1421 38.208 41.781C38.2202 41.7689 38.2202 41.7689 38.2323 41.7567C38.3295 41.696 38.4268 41.623 38.524 41.5501C38.5483 41.538 38.5847 41.5137 38.5969 41.5015C38.682 41.4286 38.767 41.3678 38.8521 41.3071C38.8764 41.2828 38.9129 41.2706 38.9372 41.2463C39.0344 41.1612 39.1316 41.0883 39.241 41.0033C39.2653 40.9668 39.3139 40.9425 39.3504 40.906C39.4111 40.8574 39.4719 40.8088 39.5205 40.7602C39.5813 40.7116 39.6299 40.663 39.6785 40.6144C39.7271 40.5779 39.7636 40.5415 39.8122 40.505C39.8608 40.4564 39.9094 40.4078 39.9702 40.3592C40.0066 40.3105 40.0552 40.2741 40.0917 40.2376C40.1525 40.1769 40.2011 40.1283 40.2497 40.0796C40.3347 39.9946 40.4077 39.9095 40.4927 39.8366C40.5292 39.788 40.5778 39.7394 40.6143 39.6908C40.6629 39.6421 40.7236 39.5814 40.7722 39.5328C40.8087 39.4842 40.8452 39.4477 40.8816 39.4112C40.9302 39.3383 40.991 39.2776 41.0518 39.2046C41.0761 39.1803 41.1125 39.1439 41.1368 39.1074C41.4528 38.7307 41.7566 38.3296 42.0361 37.9043L42.1334 37.7585C43.616 35.4859 44.491 32.7758 44.491 29.8592C44.491 21.8991 38.0136 15.4217 30.0413 15.4217C24.0865 15.4217 18.9702 19.031 16.7584 24.1838V11.4842C17.3538 12.0796 17.9372 12.6751 18.5327 13.2585C18.7271 13.4529 19.0309 13.4894 19.2618 13.3314C21.2792 12.031 23.5396 11.0831 25.8851 10.5849C26.1525 10.5241 26.3469 10.2932 26.3469 10.0137V5.05534C27.5622 5.04319 28.7896 5.04319 30.0049 5.03104L33.6629 5.05534V10.0137C33.6629 10.2932 33.8573 10.5241 34.1247 10.5849C36.4823 11.0831 38.7306 12.0189 40.7601 13.3314C40.991 13.4894 41.2948 13.4529 41.4893 13.2585L45.0014 9.74631L50.1785 14.9112L46.6663 18.4112C46.4719 18.6057 46.4476 18.9095 46.5934 19.1404C47.9059 21.1699 48.8295 23.406 49.3278 25.7637C49.3764 26.0432 49.6195 26.2255 49.899 26.2255H54.8695V33.5293H49.9111C49.6316 33.5293 49.4007 33.7237 49.34 33.9911C48.8295 36.3487 47.8938 38.5849 46.5813 40.6144C46.4354 40.8453 46.4597 41.1491 46.6663 41.3435L50.1785 44.8435L45.0014 50.0206L41.5014 46.5085C41.307 46.314 41.0032 46.2897 40.7722 46.4355C38.7427 47.7359 36.4945 48.6595 34.1247 49.1578C33.8573 49.2185 33.6629 49.4616 33.6629 49.729V54.6994L30.017 54.6751C29.9441 54.663 29.8834 54.6751 29.8226 54.6994C16.1993 54.5779 5.21322 43.5189 5.20107 29.8713V22.7376C5.20107 22.7255 5.20107 22.7133 5.20107 22.7012C5.18892 22.3852 4.93371 22.1421 4.61774 22.1421C4.59343 22.1421 4.55697 22.1421 4.53267 22.1543H2.00489L7.51009 15.4946L13.0153 22.1543H10.4875C10.4632 22.1421 10.4268 22.1421 10.3903 22.1421C10.0743 22.1543 9.81913 22.4095 9.81913 22.7376C9.81913 22.7498 9.81913 22.7498 9.81913 22.7498V29.8592C9.81913 41.0276 18.8851 50.0814 30.0413 50.0814C30.3695 50.0935 30.6247 49.8262 30.6247 49.5102C30.6247 49.1821 30.3695 48.9269 30.0413 48.9269C19.5049 48.9269 10.9858 40.3956 10.9858 29.8592V23.321H14.2549C14.7532 23.321 15.0205 22.7498 14.7045 22.3609L10.9858 17.8644V8.79839C10.9858 8.47027 10.7184 8.20291 10.3903 8.20291C10.366 8.20291 10.3417 8.21506 10.3052 8.21506H7.77746L13.2827 1.55534ZM30.0413 16.5883C37.3816 16.5883 43.3243 22.5189 43.3243 29.8713C43.3243 32.3869 42.6195 34.7446 41.4042 36.7498C38.682 33.2619 34.4893 31.196 30.0413 31.196C25.5813 31.196 21.3886 33.2498 18.6663 36.7376C17.4511 34.7324 16.7584 32.3869 16.7584 29.8713C16.7584 22.5189 22.7011 16.5883 30.0413 16.5883ZM30.0413 20.7324C27.4893 20.7324 25.4111 22.8105 25.4111 25.3626C25.4111 27.9147 27.4893 29.9807 30.0413 29.9807C32.5934 29.9807 34.6716 27.9147 34.6716 25.3626C34.6716 22.8105 32.5934 20.7324 30.0413 20.7324ZM30.0413 21.8991C31.9615 21.8991 33.5049 23.4425 33.5049 25.3626C33.5049 27.2828 31.9615 28.8262 30.0413 28.8262C28.1212 28.8262 26.5778 27.2828 26.5778 25.3626C26.5778 23.4425 28.1212 21.8991 30.0413 21.8991ZM30.0413 32.3505C34.2462 32.3626 38.1594 34.3921 40.6629 37.7585C38.2323 41.0154 34.4893 43.0206 30.4302 43.1421C30.2966 43.1421 30.175 43.1543 30.0413 43.1543C25.8365 43.1421 21.9111 41.1126 19.4198 37.7463C21.9233 34.38 25.8365 32.3626 30.0413 32.3505Z" fill="black" stroke="white" stroke-width="2.66667" mask="url(#path-2-inside-1_421_5795)"/>
</g>
</g>
</g>
</g>
</svg>
