<svg width="54" height="52" viewBox="0 0 54 52" fill="none" xmlns="http://www.w3.org/2000/svg">
<g id="Clip path group">
<g id="Group">
<path id="Vector" d="M9.62023 13.1239L9.62404 13.006C9.62965 13.0063 9.63531 13.0066 9.64102 13.0071C9.73491 13.0156 9.84052 13.0615 9.91895 13.1513C9.99568 13.2392 10.0157 13.3327 10.0157 13.398C10.0157 13.4634 9.99568 13.5569 9.91895 13.6448C9.83575 13.74 9.72197 13.7859 9.62404 13.79L9.62023 13.6722M9.62023 13.1239V13.0059C9.61324 13.0062 9.60608 13.0067 9.59879 13.0074C9.51712 13.0157 9.41791 13.0547 9.33902 13.1407C9.25782 13.2292 9.23357 13.3284 9.23357 13.4024C9.23357 13.4767 9.25776 13.5709 9.33273 13.6549C9.41168 13.7435 9.51465 13.7839 9.59875 13.7898C9.60254 13.79 9.60629 13.7902 9.60999 13.7903C9.61217 13.7903 9.61435 13.7903 9.61654 13.7903L9.62023 13.6722M9.62023 13.1239C9.61424 13.1237 9.60834 13.1236 9.60254 13.1238C9.26446 13.1309 9.26447 13.6652 9.60254 13.6723C9.60834 13.6724 9.61424 13.6724 9.62023 13.6722M9.62023 13.1239C9.62603 13.1239 9.63174 13.124 9.63736 13.1243C9.99348 13.1411 9.98777 13.6837 9.62023 13.6722M9.57194 12.4577L9.6144 12.4388L9.65713 12.4579C9.64838 12.4575 9.6396 12.4573 9.6308 12.4572C9.61107 12.4568 9.59144 12.457 9.57194 12.4577Z" fill="black" stroke="#2563EB" stroke-width="1.33333"/>
</g>
</g>
</svg>
