<svg width="56" height="56" viewBox="0 0 56 56" fill="none" xmlns="http://www.w3.org/2000/svg">
<path d="M11.6202 16.1239L11.624 16.006C11.6296 16.0063 11.6353 16.0066 11.641 16.0071C11.7349 16.0156 11.8405 16.0615 11.919 16.1513C11.9957 16.2392 12.0157 16.3327 12.0157 16.398C12.0157 16.4634 11.9957 16.5569 11.919 16.6448C11.8358 16.74 11.722 16.7859 11.624 16.79L11.6202 16.6722M11.6202 16.1239V16.0059C11.6132 16.0062 11.6061 16.0067 11.5988 16.0074C11.5171 16.0157 11.4179 16.0547 11.339 16.1407C11.2578 16.2292 11.2336 16.3284 11.2336 16.4024C11.2336 16.4767 11.2578 16.5709 11.3327 16.6549C11.4117 16.7435 11.5147 16.7839 11.5988 16.7898C11.6025 16.79 11.6063 16.7902 11.61 16.7903C11.6122 16.7903 11.6144 16.7903 11.6165 16.7903L11.6202 16.6722M11.6202 16.1239C11.6142 16.1237 11.6083 16.1236 11.6025 16.1238C11.2645 16.1309 11.2645 16.6652 11.6025 16.6723C11.6083 16.6724 11.6142 16.6724 11.6202 16.6722M11.6202 16.1239C11.626 16.1239 11.6317 16.124 11.6374 16.1243C11.9935 16.1411 11.9878 16.6837 11.6202 16.6722M11.5719 15.4577L11.6144 15.4388L11.6571 15.4579C11.6484 15.4575 11.6396 15.4573 11.6308 15.4572C11.6111 15.4568 11.5914 15.457 11.5719 15.4577Z" fill="black" stroke="#2563EB" stroke-width="1.33333"/>
</svg>
